{
  "header": {
    "keySignatures": [
      {
        "key": "C",
        "scale": "major",
        "ticks": 0
      },
      {
        "key": "C",
        "scale": "major",
        "ticks": 0
      },
      {
        "key": "C",
        "scale": "major",
        "ticks": 0
      },
      {
        "key": "C",
        "scale": "major",
        "ticks": 0
      },
      {
        "key": "C",
        "scale": "major",
        "ticks": 0
      },
      {
        "key": "C",
        "scale": "major",
        "ticks": 0
      },
      {
        "key": "C",
        "scale": "major",
        "ticks": 0
      },
      {
        "key": "C",
        "scale": "major",
        "ticks": 0
      },
      {
        "key": "C",
        "scale": "major",
        "ticks": 0
      },
      {
        "key": "C",
        "scale": "major",
        "ticks": 0
      },
      {
        "key": "C",
        "scale": "major",
        "ticks": 0
      },
      {
        "key": "C",
        "scale": "major",
        "ticks": 0
      }
    ],
    "meta": [],
    "name": "",
    "ppq": 384,
    "tempos": [
      {
        "bpm": 96,
        "ticks": 0
      }
    ],
    "timeSignatures": [
      {
        "ticks": 0,
        "timeSignature": [
          3,
          4
        ],
        "measures": 0
      }
    ]
  },
  "tracks": [
    {
      "channel": 0,
      "controlChanges": {
        "0": [
          {
            "number": 0,
            "ticks": 0,
            "time": 0,
            "value": 0
          }
        ],
        "32": [
          {
            "number": 32,
            "ticks": 0,
            "time": 0,
            "value": 0
          }
        ]
      },
      "pitchBends": [],
      "instrument": {
        "family": "piano",
        "number": 0,
        "name": "acoustic grand piano"
      },
      "name": "Bach's BWV 999",
      "notes": [],
      "endOfTrackTicks": 50308
    },
    {
      "channel": 0,
      "controlChanges": {},
      "pitchBends": [],
      "instrument": {
        "family": "guitar",
        "number": 24,
        "name": "acoustic guitar (nylon)"
      },
      "name": "",
      "notes": [
        {
          "duration": 0.78125,
          "durationTicks": 480,
          "midi": 48,
          "name": "C3",
          "ticks": 1116,
          "time": 1.81640625,
          "velocity": 0.5196850393700787
        },
        {
          "duration": 0.13671875,
          "durationTicks": 84,
          "midi": 60,
          "name": "C4",
          "ticks": 1220,
          "time": 1.9856770833333335,
          "velocity": 0.4409448818897638
        },
        {
          "duration": 0.13671875,
          "durationTicks": 84,
          "midi": 63,
          "name": "D#4",
          "ticks": 1312,
          "time": 2.1354166666666665,
          "velocity": 0.5039370078740157
        },
        {
          "duration": 0.14322916666666652,
          "durationTicks": 88,
          "midi": 67,
          "name": "G4",
          "ticks": 1404,
          "time": 2.28515625,
          "velocity": 0.5039370078740157
        },
        {
          "duration": 0.12369791666666696,
          "durationTicks": 76,
          "midi": 63,
          "name": "D#4",
          "ticks": 1500,
          "time": 2.44140625,
          "velocity": 0.4566929133858268
        },
        {
          "duration": 0.14973958333333304,
          "durationTicks": 92,
          "midi": 60,
          "name": "C4",
          "ticks": 1588,
          "time": 2.584635416666667,
          "velocity": 0.49606299212598426
        },
        {
          "duration": 0.12369791666666607,
          "durationTicks": 76,
          "midi": 63,
          "name": "D#4",
          "ticks": 1684,
          "time": 2.740885416666667,
          "velocity": 0.4645669291338583
        },
        {
          "duration": 0.13671875,
          "durationTicks": 84,
          "midi": 60,
          "name": "C4",
          "ticks": 1772,
          "time": 2.884114583333333,
          "velocity": 0.48031496062992124
        },
        {
          "duration": 0.13020833333333393,
          "durationTicks": 80,
          "midi": 55,
          "name": "G3",
          "ticks": 1856,
          "time": 3.020833333333333,
          "velocity": 0.5354330708661418
        },
        {
          "duration": 0.13020833333333393,
          "durationTicks": 80,
          "midi": 60,
          "name": "C4",
          "ticks": 1952,
          "time": 3.177083333333333,
          "velocity": 0.5354330708661418
        },
        {
          "duration": 0.09765625,
          "durationTicks": 60,
          "midi": 51,
          "name": "D#3",
          "ticks": 2040,
          "time": 3.3203125,
          "velocity": 0.49606299212598426
        },
        {
          "duration": 0.10416666666666696,
          "durationTicks": 64,
          "midi": 60,
          "name": "C4",
          "ticks": 2136,
          "time": 3.4765625,
          "velocity": 0.47244094488188976
        },
        {
          "duration": 0.768229166666667,
          "durationTicks": 472,
          "midi": 48,
          "name": "C3",
          "ticks": 2216,
          "time": 3.606770833333333,
          "velocity": 0.5354330708661418
        },
        {
          "duration": 0.14322916666666696,
          "durationTicks": 88,
          "midi": 60,
          "name": "C4",
          "ticks": 2316,
          "time": 3.76953125,
          "velocity": 0.5354330708661418
        },
        {
          "duration": 0.13671875,
          "durationTicks": 84,
          "midi": 63,
          "name": "D#4",
          "ticks": 2404,
          "time": 3.912760416666667,
          "velocity": 0.48031496062992124
        },
        {
          "duration": 0.15625,
          "durationTicks": 96,
          "midi": 67,
          "name": "G4",
          "ticks": 2492,
          "time": 4.055989583333333,
          "velocity": 0.5196850393700787
        },
        {
          "duration": 0.14322916666666607,
          "durationTicks": 88,
          "midi": 63,
          "name": "D#4",
          "ticks": 2584,
          "time": 4.205729166666667,
          "velocity": 0.5354330708661418
        },
        {
          "duration": 0.15625,
          "durationTicks": 96,
          "midi": 60,
          "name": "C4",
          "ticks": 2680,
          "time": 4.361979166666667,
          "velocity": 0.47244094488188976
        },
        {
          "duration": 0.12369791666666696,
          "durationTicks": 76,
          "midi": 63,
          "name": "D#4",
          "ticks": 2772,
          "time": 4.51171875,
          "velocity": 0.5118110236220472
        },
        {
          "duration": 0.14322916666666607,
          "durationTicks": 88,
          "midi": 60,
          "name": "C4",
          "ticks": 2860,
          "time": 4.654947916666667,
          "velocity": 0.4881889763779528
        },
        {
          "duration": 0.13671875,
          "durationTicks": 84,
          "midi": 55,
          "name": "G3",
          "ticks": 2944,
          "time": 4.791666666666667,
          "velocity": 0.5669291338582677
        },
        {
          "duration": 0.14322916666666607,
          "durationTicks": 88,
          "midi": 60,
          "name": "C4",
          "ticks": 3048,
          "time": 4.9609375,
          "velocity": 0.5433070866141733
        },
        {
          "duration": 0.1171875,
          "durationTicks": 72,
          "midi": 51,
          "name": "D#3",
          "ticks": 3136,
          "time": 5.104166666666666,
          "velocity": 0.5433070866141733
        },
        {
          "duration": 0.15625,
          "durationTicks": 96,
          "midi": 60,
          "name": "C4",
          "ticks": 3228,
          "time": 5.25390625,
          "velocity": 0.5196850393700787
        },
        {
          "duration": 0.9114583333333321,
          "durationTicks": 560,
          "midi": 48,
          "name": "C3",
          "ticks": 3320,
          "time": 5.403645833333334,
          "velocity": 0.5826771653543307
        },
        {
          "duration": 0.15625,
          "durationTicks": 96,
          "midi": 60,
          "name": "C4",
          "ticks": 3412,
          "time": 5.553385416666666,
          "velocity": 0.5039370078740157
        },
        {
          "duration": 0.15625,
          "durationTicks": 96,
          "midi": 65,
          "name": "F4",
          "ticks": 3508,
          "time": 5.709635416666666,
          "velocity": 0.5669291338582677
        },
        {
          "duration": 0.13671875,
          "durationTicks": 84,
          "midi": 68,
          "name": "G#4",
          "ticks": 3604,
          "time": 5.865885416666666,
          "velocity": 0.4881889763779528
        },
        {
          "duration": 0.14322916666666785,
          "durationTicks": 88,
          "midi": 65,
          "name": "F4",
          "ticks": 3688,
          "time": 6.002604166666666,
          "velocity": 0.5118110236220472
        },
        {
          "duration": 0.13020833333333393,
          "durationTicks": 80,
          "midi": 60,
          "name": "C4",
          "ticks": 3784,
          "time": 6.158854166666666,
          "velocity": 0.49606299212598426
        },
        {
          "duration": 0.12369791666666607,
          "durationTicks": 76,
          "midi": 65,
          "name": "F4",
          "ticks": 3876,
          "time": 6.30859375,
          "velocity": 0.5433070866141733
        },
        {
          "duration": 0.14322916666666607,
          "durationTicks": 88,
          "midi": 60,
          "name": "C4",
          "ticks": 3968,
          "time": 6.458333333333334,
          "velocity": 0.49606299212598426
        },
        {
          "duration": 0.13671875,
          "durationTicks": 84,
          "midi": 56,
          "name": "G#3",
          "ticks": 4052,
          "time": 6.595052083333334,
          "velocity": 0.5039370078740157
        },
        {
          "duration": 0.14973958333333215,
          "durationTicks": 92,
          "midi": 60,
          "name": "C4",
          "ticks": 4148,
          "time": 6.751302083333334,
          "velocity": 0.5354330708661418
        },
        {
          "duration": 0.13020833333333393,
          "durationTicks": 80,
          "midi": 53,
          "name": "F3",
          "ticks": 4240,
          "time": 6.901041666666666,
          "velocity": 0.5669291338582677
        },
        {
          "duration": 0.15625,
          "durationTicks": 96,
          "midi": 60,
          "name": "C4",
          "ticks": 4332,
          "time": 7.05078125,
          "velocity": 0.5433070866141733
        },
        {
          "duration": 0.7747395833333339,
          "durationTicks": 476,
          "midi": 48,
          "name": "C3",
          "ticks": 4420,
          "time": 7.194010416666666,
          "velocity": 0.6141732283464567
        },
        {
          "duration": 0.14973958333333215,
          "durationTicks": 92,
          "midi": 60,
          "name": "C4",
          "ticks": 4508,
          "time": 7.337239583333334,
          "velocity": 0.5354330708661418
        },
        {
          "duration": 0.14973958333333215,
          "durationTicks": 92,
          "midi": 65,
          "name": "F4",
          "ticks": 4604,
          "time": 7.493489583333334,
          "velocity": 0.5590551181102362
        },
        {
          "duration": 0.14322916666666785,
          "durationTicks": 88,
          "midi": 68,
          "name": "G#4",
          "ticks": 4696,
          "time": 7.643229166666666,
          "velocity": 0.48031496062992124
        },
        {
          "duration": 0.13671875,
          "durationTicks": 84,
          "midi": 65,
          "name": "F4",
          "ticks": 4788,
          "time": 7.79296875,
          "velocity": 0.5354330708661418
        },
        {
          "duration": 0.16276041666666607,
          "durationTicks": 100,
          "midi": 60,
          "name": "C4",
          "ticks": 4880,
          "time": 7.942708333333334,
          "velocity": 0.4645669291338583
        },
        {
          "duration": 0.1171875,
          "durationTicks": 72,
          "midi": 65,
          "name": "F4",
          "ticks": 4980,
          "time": 8.10546875,
          "velocity": 0.5590551181102362
        },
        {
          "duration": 0.15625,
          "durationTicks": 96,
          "midi": 60,
          "name": "C4",
          "ticks": 5064,
          "time": 8.2421875,
          "velocity": 0.5039370078740157
        },
        {
          "duration": 0.12369791666666607,
          "durationTicks": 76,
          "midi": 56,
          "name": "G#3",
          "ticks": 5156,
          "time": 8.391927083333334,
          "velocity": 0.5039370078740157
        },
        {
          "duration": 0.14973958333333393,
          "durationTicks": 92,
          "midi": 60,
          "name": "C4",
          "ticks": 5244,
          "time": 8.53515625,
          "velocity": 0.5354330708661418
        },
        {
          "duration": 0.11067708333333215,
          "durationTicks": 68,
          "midi": 53,
          "name": "F3",
          "ticks": 5336,
          "time": 8.684895833333334,
          "velocity": 0.5984251968503937
        },
        {
          "duration": 0.14973958333333393,
          "durationTicks": 92,
          "midi": 60,
          "name": "C4",
          "ticks": 5428,
          "time": 8.834635416666666,
          "velocity": 0.5196850393700787
        },
        {
          "duration": 1.0286458333333321,
          "durationTicks": 632,
          "midi": 48,
          "name": "C3",
          "ticks": 5520,
          "time": 8.984375,
          "velocity": 0.5826771653543307
        },
        {
          "duration": 0.15625,
          "durationTicks": 96,
          "midi": 59,
          "name": "B3",
          "ticks": 5608,
          "time": 9.127604166666666,
          "velocity": 0.49606299212598426
        },
        {
          "duration": 0.13671875,
          "durationTicks": 84,
          "midi": 62,
          "name": "D4",
          "ticks": 5704,
          "time": 9.283854166666666,
          "velocity": 0.5354330708661418
        },
        {
          "duration": 0.15625,
          "durationTicks": 96,
          "midi": 65,
          "name": "F4",
          "ticks": 5792,
          "time": 9.427083333333334,
          "velocity": 0.5354330708661418
        },
        {
          "duration": 0.13020833333333393,
          "durationTicks": 80,
          "midi": 62,
          "name": "D4",
          "ticks": 5892,
          "time": 9.58984375,
          "velocity": 0.5039370078740157
        },
        {
          "duration": 0.13671875,
          "durationTicks": 84,
          "midi": 59,
          "name": "B3",
          "ticks": 5980,
          "time": 9.733072916666666,
          "velocity": 0.49606299212598426
        },
        {
          "duration": 0.13020833333333393,
          "durationTicks": 80,
          "midi": 62,
          "name": "D4",
          "ticks": 6068,
          "time": 9.876302083333334,
          "velocity": 0.5039370078740157
        },
        {
          "duration": 0.14973958333333215,
          "durationTicks": 92,
          "midi": 59,
          "name": "B3",
          "ticks": 6156,
          "time": 10.01953125,
          "velocity": 0.49606299212598426
        },
        {
          "duration": 0.14973958333333215,
          "durationTicks": 92,
          "midi": 56,
          "name": "G#3",
          "ticks": 6244,
          "time": 10.162760416666668,
          "velocity": 0.5196850393700787
        },
        {
          "duration": 0.15625,
          "durationTicks": 96,
          "midi": 59,
          "name": "B3",
          "ticks": 6344,
          "time": 10.325520833333332,
          "velocity": 0.5433070866141733
        },
        {
          "duration": 0.12369791666666785,
          "durationTicks": 76,
          "midi": 53,
          "name": "F3",
          "ticks": 6440,
          "time": 10.481770833333332,
          "velocity": 0.5984251968503937
        },
        {
          "duration": 0.15625,
          "durationTicks": 96,
          "midi": 59,
          "name": "B3",
          "ticks": 6532,
          "time": 10.631510416666668,
          "velocity": 0.5590551181102362
        },
        {
          "duration": 1.0091145833333321,
          "durationTicks": 620,
          "midi": 48,
          "name": "C3",
          "ticks": 6624,
          "time": 10.78125,
          "velocity": 0.5669291338582677
        },
        {
          "duration": 0.16276041666666785,
          "durationTicks": 100,
          "midi": 59,
          "name": "B3",
          "ticks": 6708,
          "time": 10.91796875,
          "velocity": 0.5354330708661418
        },
        {
          "duration": 0.1302083333333357,
          "durationTicks": 80,
          "midi": 62,
          "name": "D4",
          "ticks": 6812,
          "time": 11.087239583333332,
          "velocity": 0.5354330708661418
        },
        {
          "duration": 0.14973958333333215,
          "durationTicks": 92,
          "midi": 65,
          "name": "F4",
          "ticks": 6900,
          "time": 11.23046875,
          "velocity": 0.5196850393700787
        },
        {
          "duration": 0.13020833333333215,
          "durationTicks": 80,
          "midi": 62,
          "name": "D4",
          "ticks": 7000,
          "time": 11.393229166666668,
          "velocity": 0.4881889763779528
        },
        {
          "duration": 0.13671875,
          "durationTicks": 84,
          "midi": 59,
          "name": "B3",
          "ticks": 7088,
          "time": 11.536458333333332,
          "velocity": 0.49606299212598426
        },
        {
          "duration": 0.1236979166666643,
          "durationTicks": 76,
          "midi": 62,
          "name": "D4",
          "ticks": 7180,
          "time": 11.686197916666668,
          "velocity": 0.5039370078740157
        },
        {
          "duration": 0.14322916666666785,
          "durationTicks": 88,
          "midi": 59,
          "name": "B3",
          "ticks": 7268,
          "time": 11.829427083333332,
          "velocity": 0.5118110236220472
        },
        {
          "duration": 0.1171875,
          "durationTicks": 72,
          "midi": 56,
          "name": "G#3",
          "ticks": 7356,
          "time": 11.97265625,
          "velocity": 0.5590551181102362
        },
        {
          "duration": 0.15625,
          "durationTicks": 96,
          "midi": 59,
          "name": "B3",
          "ticks": 7440,
          "time": 12.109375,
          "velocity": 0.5196850393700787
        },
        {
          "duration": 0.1171875,
          "durationTicks": 72,
          "midi": 53,
          "name": "F3",
          "ticks": 7540,
          "time": 12.272135416666668,
          "velocity": 0.6141732283464567
        },
        {
          "duration": 0.11067708333333215,
          "durationTicks": 68,
          "midi": 59,
          "name": "B3",
          "ticks": 7632,
          "time": 12.421875,
          "velocity": 0.5354330708661418
        },
        {
          "duration": 0.9375,
          "durationTicks": 576,
          "midi": 48,
          "name": "C3",
          "ticks": 7724,
          "time": 12.571614583333332,
          "velocity": 0.5984251968503937
        },
        {
          "duration": 0.16276041666666785,
          "durationTicks": 100,
          "midi": 55,
          "name": "G3",
          "ticks": 7808,
          "time": 12.708333333333332,
          "velocity": 0.47244094488188976
        },
        {
          "duration": 0.14973958333333215,
          "durationTicks": 92,
          "midi": 60,
          "name": "C4",
          "ticks": 7908,
          "time": 12.87109375,
          "velocity": 0.5118110236220472
        },
        {
          "duration": 0.14322916666666785,
          "durationTicks": 88,
          "midi": 63,
          "name": "D#4",
          "ticks": 8000,
          "time": 13.020833333333332,
          "velocity": 0.47244094488188976
        },
        {
          "duration": 0.14973958333333215,
          "durationTicks": 92,
          "midi": 60,
          "name": "C4",
          "ticks": 8092,
          "time": 13.170572916666668,
          "velocity": 0.5196850393700787
        },
        {
          "duration": 0.1302083333333357,
          "durationTicks": 80,
          "midi": 55,
          "name": "G3",
          "ticks": 8192,
          "time": 13.333333333333332,
          "velocity": 0.49606299212598426
        },
        {
          "duration": 0.14322916666666785,
          "durationTicks": 88,
          "midi": 60,
          "name": "C4",
          "ticks": 8276,
          "time": 13.470052083333332,
          "velocity": 0.5196850393700787
        },
        {
          "duration": 0.1497395833333357,
          "durationTicks": 92,
          "midi": 55,
          "name": "G3",
          "ticks": 8372,
          "time": 13.626302083333332,
          "velocity": 0.5039370078740157
        },
        {
          "duration": 0.12369791666666785,
          "durationTicks": 76,
          "midi": 51,
          "name": "D#3",
          "ticks": 8460,
          "time": 13.76953125,
          "velocity": 0.5039370078740157
        },
        {
          "duration": 0.14322916666666785,
          "durationTicks": 88,
          "midi": 55,
          "name": "G3",
          "ticks": 8552,
          "time": 13.919270833333332,
          "velocity": 0.5354330708661418
        },
        {
          "duration": 0.11067708333333215,
          "durationTicks": 68,
          "midi": 48,
          "name": "C3",
          "ticks": 8644,
          "time": 14.069010416666668,
          "velocity": 0.5826771653543307
        },
        {
          "duration": 0.14973958333333215,
          "durationTicks": 92,
          "midi": 55,
          "name": "G3",
          "ticks": 8728,
          "time": 14.205729166666668,
          "velocity": 0.5590551181102362
        },
        {
          "duration": 0.9049479166666643,
          "durationTicks": 556,
          "midi": 46,
          "name": "A#2",
          "ticks": 8824,
          "time": 14.361979166666668,
          "velocity": 0.5433070866141733
        },
        {
          "duration": 0.17578125,
          "durationTicks": 108,
          "midi": 55,
          "name": "G3",
          "ticks": 8912,
          "time": 14.505208333333332,
          "velocity": 0.5118110236220472
        },
        {
          "duration": 0.14322916666666785,
          "durationTicks": 88,
          "midi": 60,
          "name": "C4",
          "ticks": 9008,
          "time": 14.661458333333332,
          "velocity": 0.5196850393700787
        },
        {
          "duration": 0.14322916666666785,
          "durationTicks": 88,
          "midi": 63,
          "name": "D#4",
          "ticks": 9096,
          "time": 14.8046875,
          "velocity": 0.4566929133858268
        },
        {
          "duration": 0.13671875,
          "durationTicks": 84,
          "midi": 60,
          "name": "C4",
          "ticks": 9192,
          "time": 14.9609375,
          "velocity": 0.5118110236220472
        },
        {
          "duration": 0.1497395833333357,
          "durationTicks": 92,
          "midi": 55,
          "name": "G3",
          "ticks": 9284,
          "time": 15.110677083333332,
          "velocity": 0.4881889763779528
        },
        {
          "duration": 0.13020833333333215,
          "durationTicks": 80,
          "midi": 60,
          "name": "C4",
          "ticks": 9372,
          "time": 15.25390625,
          "velocity": 0.5118110236220472
        },
        {
          "duration": 0.13671875,
          "durationTicks": 84,
          "midi": 55,
          "name": "G3",
          "ticks": 9464,
          "time": 15.403645833333332,
          "velocity": 0.5118110236220472
        },
        {
          "duration": 0.13671875,
          "durationTicks": 84,
          "midi": 51,
          "name": "D#3",
          "ticks": 9552,
          "time": 15.546875,
          "velocity": 0.5433070866141733
        },
        {
          "duration": 0.14322916666666785,
          "durationTicks": 88,
          "midi": 55,
          "name": "G3",
          "ticks": 9648,
          "time": 15.703125,
          "velocity": 0.5354330708661418
        },
        {
          "duration": 0.1171875,
          "durationTicks": 72,
          "midi": 48,
          "name": "C3",
          "ticks": 9740,
          "time": 15.852864583333332,
          "velocity": 0.5590551181102362
        },
        {
          "duration": 0.14322916666666785,
          "durationTicks": 88,
          "midi": 55,
          "name": "G3",
          "ticks": 9828,
          "time": 15.99609375,
          "velocity": 0.5826771653543307
        },
        {
          "duration": 0.87890625,
          "durationTicks": 540,
          "midi": 44,
          "name": "G#2",
          "ticks": 9924,
          "time": 16.15234375,
          "velocity": 0.5354330708661418
        },
        {
          "duration": 0.14322916666666785,
          "durationTicks": 88,
          "midi": 55,
          "name": "G3",
          "ticks": 10016,
          "time": 16.302083333333332,
          "velocity": 0.5590551181102362
        },
        {
          "duration": 0.1432291666666643,
          "durationTicks": 88,
          "midi": 60,
          "name": "C4",
          "ticks": 10108,
          "time": 16.451822916666668,
          "velocity": 0.5433070866141733
        },
        {
          "duration": 0.13671875,
          "durationTicks": 84,
          "midi": 63,
          "name": "D#4",
          "ticks": 10196,
          "time": 16.595052083333332,
          "velocity": 0.47244094488188976
        },
        {
          "duration": 0.1302083333333357,
          "durationTicks": 80,
          "midi": 60,
          "name": "C4",
          "ticks": 10292,
          "time": 16.751302083333332,
          "velocity": 0.5118110236220472
        },
        {
          "duration": 0.14973958333333215,
          "durationTicks": 92,
          "midi": 55,
          "name": "G3",
          "ticks": 10380,
          "time": 16.89453125,
          "velocity": 0.48031496062992124
        },
        {
          "duration": 0.13020833333333215,
          "durationTicks": 80,
          "midi": 60,
          "name": "C4",
          "ticks": 10480,
          "time": 17.057291666666668,
          "velocity": 0.5118110236220472
        },
        {
          "duration": 0.13020833333333215,
          "durationTicks": 80,
          "midi": 55,
          "name": "G3",
          "ticks": 10572,
          "time": 17.20703125,
          "velocity": 0.5354330708661418
        },
        {
          "duration": 0.1171875,
          "durationTicks": 72,
          "midi": 51,
          "name": "D#3",
          "ticks": 10656,
          "time": 17.34375,
          "velocity": 0.5669291338582677
        },
        {
          "duration": 0.15625,
          "durationTicks": 96,
          "midi": 55,
          "name": "G3",
          "ticks": 10744,
          "time": 17.486979166666668,
          "velocity": 0.5669291338582677
        },
        {
          "duration": 0.11067708333333215,
          "durationTicks": 68,
          "midi": 48,
          "name": "C3",
          "ticks": 10836,
          "time": 17.63671875,
          "velocity": 0.5590551181102362
        },
        {
          "duration": 0.14973958333333215,
          "durationTicks": 92,
          "midi": 55,
          "name": "G3",
          "ticks": 10924,
          "time": 17.779947916666668,
          "velocity": 0.5590551181102362
        },
        {
          "duration": 0.9309895833333321,
          "durationTicks": 572,
          "midi": 43,
          "name": "G2",
          "ticks": 11016,
          "time": 17.9296875,
          "velocity": 0.5984251968503937
        },
        {
          "duration": 0.15625,
          "durationTicks": 96,
          "midi": 55,
          "name": "G3",
          "ticks": 11108,
          "time": 18.079427083333332,
          "velocity": 0.5433070866141733
        },
        {
          "duration": 0.15625,
          "durationTicks": 96,
          "midi": 60,
          "name": "C4",
          "ticks": 11208,
          "time": 18.2421875,
          "velocity": 0.5354330708661418
        },
        {
          "duration": 0.1302083333333357,
          "durationTicks": 80,
          "midi": 63,
          "name": "D#4",
          "ticks": 11300,
          "time": 18.391927083333332,
          "velocity": 0.4645669291338583
        },
        {
          "duration": 0.14322916666666785,
          "durationTicks": 88,
          "midi": 60,
          "name": "C4",
          "ticks": 11388,
          "time": 18.53515625,
          "velocity": 0.5039370078740157
        },
        {
          "duration": 0.13020833333333215,
          "durationTicks": 80,
          "midi": 55,
          "name": "G3",
          "ticks": 11488,
          "time": 18.697916666666668,
          "velocity": 0.49606299212598426
        },
        {
          "duration": 0.13671875,
          "durationTicks": 84,
          "midi": 60,
          "name": "C4",
          "ticks": 11576,
          "time": 18.841145833333332,
          "velocity": 0.4881889763779528
        },
        {
          "duration": 0.14973958333333215,
          "durationTicks": 92,
          "midi": 55,
          "name": "G3",
          "ticks": 11668,
          "time": 18.990885416666668,
          "velocity": 0.5354330708661418
        },
        {
          "duration": 0.1106770833333357,
          "durationTicks": 68,
          "midi": 51,
          "name": "D#3",
          "ticks": 11756,
          "time": 19.134114583333332,
          "velocity": 0.5196850393700787
        },
        {
          "duration": 0.14973958333333215,
          "durationTicks": 92,
          "midi": 55,
          "name": "G3",
          "ticks": 11848,
          "time": 19.283854166666668,
          "velocity": 0.5669291338582677
        },
        {
          "duration": 0.1171875,
          "durationTicks": 72,
          "midi": 48,
          "name": "C3",
          "ticks": 11936,
          "time": 19.427083333333332,
          "velocity": 0.5826771653543307
        },
        {
          "duration": 0.13020833333333215,
          "durationTicks": 80,
          "midi": 55,
          "name": "G3",
          "ticks": 12028,
          "time": 19.576822916666668,
          "velocity": 0.5433070866141733
        },
        {
          "duration": 0.7356770833333321,
          "durationTicks": 452,
          "midi": 42,
          "name": "F#2",
          "ticks": 12124,
          "time": 19.733072916666668,
          "velocity": 0.5590551181102362
        },
        {
          "duration": 0.16276041666666785,
          "durationTicks": 100,
          "midi": 57,
          "name": "A3",
          "ticks": 12212,
          "time": 19.876302083333332,
          "velocity": 0.49606299212598426
        },
        {
          "duration": 0.13671875,
          "durationTicks": 84,
          "midi": 60,
          "name": "C4",
          "ticks": 12316,
          "time": 20.045572916666664,
          "velocity": 0.5196850393700787
        },
        {
          "duration": 0.13671875,
          "durationTicks": 84,
          "midi": 63,
          "name": "D#4",
          "ticks": 12400,
          "time": 20.182291666666664,
          "velocity": 0.47244094488188976
        },
        {
          "duration": 0.1236979166666714,
          "durationTicks": 76,
          "midi": 60,
          "name": "C4",
          "ticks": 12496,
          "time": 20.338541666666664,
          "velocity": 0.49606299212598426
        },
        {
          "duration": 0.1627604166666643,
          "durationTicks": 100,
          "midi": 57,
          "name": "A3",
          "ticks": 12584,
          "time": 20.481770833333336,
          "velocity": 0.4881889763779528
        },
        {
          "duration": 0.1432291666666714,
          "durationTicks": 88,
          "midi": 60,
          "name": "C4",
          "ticks": 12676,
          "time": 20.631510416666664,
          "velocity": 0.5196850393700787
        },
        {
          "duration": 0.1302083333333357,
          "durationTicks": 80,
          "midi": 57,
          "name": "A3",
          "ticks": 12772,
          "time": 20.787760416666664,
          "velocity": 0.5039370078740157
        },
        {
          "duration": 0.1432291666666643,
          "durationTicks": 88,
          "midi": 51,
          "name": "D#3",
          "ticks": 12852,
          "time": 20.91796875,
          "velocity": 0.5196850393700787
        },
        {
          "duration": 0.1497395833333357,
          "durationTicks": 92,
          "midi": 57,
          "name": "A3",
          "ticks": 12948,
          "time": 21.07421875,
          "velocity": 0.5669291338582677
        },
        {
          "duration": 0.1106770833333286,
          "durationTicks": 68,
          "midi": 48,
          "name": "C3",
          "ticks": 13040,
          "time": 21.223958333333336,
          "velocity": 0.5826771653543307
        },
        {
          "duration": 0.15625,
          "durationTicks": 96,
          "midi": 57,
          "name": "A3",
          "ticks": 13128,
          "time": 21.3671875,
          "velocity": 0.5433070866141733
        },
        {
          "duration": 0.6705729166666714,
          "durationTicks": 412,
          "midi": 42,
          "name": "F#2",
          "ticks": 13216,
          "time": 21.510416666666664,
          "velocity": 0.5196850393700787
        },
        {
          "duration": 0.1432291666666643,
          "durationTicks": 88,
          "midi": 57,
          "name": "A3",
          "ticks": 13316,
          "time": 21.673177083333336,
          "velocity": 0.5118110236220472
        },
        {
          "duration": 0.1497395833333357,
          "durationTicks": 92,
          "midi": 60,
          "name": "C4",
          "ticks": 13408,
          "time": 21.822916666666664,
          "velocity": 0.5433070866141733
        },
        {
          "duration": 0.13671875,
          "durationTicks": 84,
          "midi": 63,
          "name": "D#4",
          "ticks": 13500,
          "time": 21.97265625,
          "velocity": 0.47244094488188976
        },
        {
          "duration": 0.13671875,
          "durationTicks": 84,
          "midi": 60,
          "name": "C4",
          "ticks": 13592,
          "time": 22.122395833333336,
          "velocity": 0.5590551181102362
        },
        {
          "duration": 0.1497395833333357,
          "durationTicks": 92,
          "midi": 57,
          "name": "A3",
          "ticks": 13680,
          "time": 22.265625,
          "velocity": 0.49606299212598426
        },
        {
          "duration": 0.1302083333333357,
          "durationTicks": 80,
          "midi": 60,
          "name": "C4",
          "ticks": 13776,
          "time": 22.421875,
          "velocity": 0.5196850393700787
        },
        {
          "duration": 0.1497395833333357,
          "durationTicks": 92,
          "midi": 57,
          "name": "A3",
          "ticks": 13864,
          "time": 22.565104166666664,
          "velocity": 0.5196850393700787
        },
        {
          "duration": 0.1432291666666643,
          "durationTicks": 88,
          "midi": 54,
          "name": "F#3",
          "ticks": 13952,
          "time": 22.708333333333336,
          "velocity": 0.5354330708661418
        },
        {
          "duration": 0.1497395833333357,
          "durationTicks": 92,
          "midi": 57,
          "name": "A3",
          "ticks": 14052,
          "time": 22.87109375,
          "velocity": 0.5196850393700787
        },
        {
          "duration": 0.1041666666666643,
          "durationTicks": 64,
          "midi": 50,
          "name": "D3",
          "ticks": 14144,
          "time": 23.020833333333336,
          "velocity": 0.5984251968503937
        },
        {
          "duration": 0.1497395833333286,
          "durationTicks": 92,
          "midi": 57,
          "name": "A3",
          "ticks": 14240,
          "time": 23.177083333333336,
          "velocity": 0.5118110236220472
        },
        {
          "duration": 0.8463541666666643,
          "durationTicks": 520,
          "midi": 43,
          "name": "G2",
          "ticks": 14328,
          "time": 23.3203125,
          "velocity": 0.5826771653543307
        },
        {
          "duration": 0.1497395833333357,
          "durationTicks": 92,
          "midi": 57,
          "name": "A3",
          "ticks": 14424,
          "time": 23.4765625,
          "velocity": 0.5039370078740157
        },
        {
          "duration": 0.1302083333333357,
          "durationTicks": 80,
          "midi": 58,
          "name": "A#3",
          "ticks": 14512,
          "time": 23.619791666666664,
          "velocity": 0.5039370078740157
        },
        {
          "duration": 0.1497395833333357,
          "durationTicks": 92,
          "midi": 62,
          "name": "D4",
          "ticks": 14596,
          "time": 23.756510416666664,
          "velocity": 0.5354330708661418
        },
        {
          "duration": 0.1302083333333357,
          "durationTicks": 80,
          "midi": 58,
          "name": "A#3",
          "ticks": 14692,
          "time": 23.912760416666664,
          "velocity": 0.49606299212598426
        },
        {
          "duration": 0.17578125,
          "durationTicks": 108,
          "midi": 57,
          "name": "A3",
          "ticks": 14784,
          "time": 24.0625,
          "velocity": 0.5196850393700787
        },
        {
          "duration": 0.1236979166666643,
          "durationTicks": 76,
          "midi": 58,
          "name": "A#3",
          "ticks": 14888,
          "time": 24.231770833333336,
          "velocity": 0.5433070866141733
        },
        {
          "duration": 0.1627604166666643,
          "durationTicks": 100,
          "midi": 57,
          "name": "A3",
          "ticks": 14972,
          "time": 24.368489583333336,
          "velocity": 0.5039370078740157
        },
        {
          "duration": 0.1497395833333357,
          "durationTicks": 92,
          "midi": 50,
          "name": "D3",
          "ticks": 15060,
          "time": 24.51171875,
          "velocity": 0.5354330708661418
        },
        {
          "duration": 0.1627604166666643,
          "durationTicks": 100,
          "midi": 57,
          "name": "A3",
          "ticks": 15152,
          "time": 24.661458333333336,
          "velocity": 0.5354330708661418
        },
        {
          "duration": 0.1171875,
          "durationTicks": 72,
          "midi": 46,
          "name": "A#2",
          "ticks": 15240,
          "time": 24.8046875,
          "velocity": 0.5433070866141733
        },
        {
          "duration": 0.1432291666666643,
          "durationTicks": 88,
          "midi": 57,
          "name": "A3",
          "ticks": 15332,
          "time": 24.954427083333336,
          "velocity": 0.49606299212598426
        },
        {
          "duration": 0.87890625,
          "durationTicks": 540,
          "midi": 43,
          "name": "G2",
          "ticks": 15424,
          "time": 25.104166666666664,
          "velocity": 0.5433070866141733
        },
        {
          "duration": 0.1627604166666643,
          "durationTicks": 100,
          "midi": 55,
          "name": "G3",
          "ticks": 15512,
          "time": 25.247395833333336,
          "velocity": 0.47244094488188976
        },
        {
          "duration": 0.1497395833333286,
          "durationTicks": 92,
          "midi": 58,
          "name": "A#3",
          "ticks": 15608,
          "time": 25.403645833333336,
          "velocity": 0.47244094488188976
        },
        {
          "duration": 0.1432291666666714,
          "durationTicks": 88,
          "midi": 62,
          "name": "D4",
          "ticks": 15700,
          "time": 25.553385416666664,
          "velocity": 0.5196850393700787
        },
        {
          "duration": 0.13671875,
          "durationTicks": 84,
          "midi": 58,
          "name": "A#3",
          "ticks": 15792,
          "time": 25.703125,
          "velocity": 0.5118110236220472
        },
        {
          "duration": 0.1497395833333286,
          "durationTicks": 92,
          "midi": 55,
          "name": "G3",
          "ticks": 15884,
          "time": 25.852864583333336,
          "velocity": 0.5118110236220472
        },
        {
          "duration": 0.1432291666666643,
          "durationTicks": 88,
          "midi": 58,
          "name": "A#3",
          "ticks": 15972,
          "time": 25.99609375,
          "velocity": 0.5118110236220472
        },
        {
          "duration": 0.1497395833333357,
          "durationTicks": 92,
          "midi": 55,
          "name": "G3",
          "ticks": 16072,
          "time": 26.158854166666664,
          "velocity": 0.5196850393700787
        },
        {
          "duration": 0.1302083333333286,
          "durationTicks": 80,
          "midi": 46,
          "name": "A#2",
          "ticks": 16160,
          "time": 26.302083333333336,
          "velocity": 0.5354330708661418
        },
        {
          "duration": 0.1627604166666643,
          "durationTicks": 100,
          "midi": 55,
          "name": "G3",
          "ticks": 16248,
          "time": 26.4453125,
          "velocity": 0.5354330708661418
        },
        {
          "duration": 0.1302083333333286,
          "durationTicks": 80,
          "midi": 43,
          "name": "G2",
          "ticks": 16340,
          "time": 26.595052083333336,
          "velocity": 0.5590551181102362
        },
        {
          "duration": 0.1627604166666714,
          "durationTicks": 100,
          "midi": 55,
          "name": "G3",
          "ticks": 16432,
          "time": 26.744791666666664,
          "velocity": 0.5433070866141733
        },
        {
          "duration": 0.8919270833333357,
          "durationTicks": 548,
          "midi": 39,
          "name": "D#2",
          "ticks": 16528,
          "time": 26.901041666666664,
          "velocity": 0.5826771653543307
        },
        {
          "duration": 0.1432291666666643,
          "durationTicks": 88,
          "midi": 58,
          "name": "A#3",
          "ticks": 16616,
          "time": 27.044270833333336,
          "velocity": 0.5590551181102362
        },
        {
          "duration": 0.13671875,
          "durationTicks": 84,
          "midi": 62,
          "name": "D4",
          "ticks": 16708,
          "time": 27.194010416666664,
          "velocity": 0.5196850393700787
        },
        {
          "duration": 0.1432291666666643,
          "durationTicks": 88,
          "midi": 67,
          "name": "G4",
          "ticks": 16800,
          "time": 27.34375,
          "velocity": 0.5669291338582677
        },
        {
          "duration": 0.1432291666666643,
          "durationTicks": 88,
          "midi": 62,
          "name": "D4",
          "ticks": 16892,
          "time": 27.493489583333336,
          "velocity": 0.5039370078740157
        },
        {
          "duration": 0.13671875,
          "durationTicks": 84,
          "midi": 58,
          "name": "A#3",
          "ticks": 16988,
          "time": 27.649739583333336,
          "velocity": 0.5433070866141733
        },
        {
          "duration": 0.1302083333333357,
          "durationTicks": 80,
          "midi": 62,
          "name": "D4",
          "ticks": 17076,
          "time": 27.79296875,
          "velocity": 0.5118110236220472
        },
        {
          "duration": 0.1041666666666643,
          "durationTicks": 64,
          "midi": 58,
          "name": "A#3",
          "ticks": 17168,
          "time": 27.942708333333336,
          "velocity": 0.5590551181102362
        },
        {
          "duration": 0.09765625,
          "durationTicks": 60,
          "midi": 55,
          "name": "G3",
          "ticks": 17256,
          "time": 28.0859375,
          "velocity": 0.5118110236220472
        },
        {
          "duration": 0.13671875,
          "durationTicks": 84,
          "midi": 58,
          "name": "A#3",
          "ticks": 17356,
          "time": 28.248697916666664,
          "velocity": 0.5669291338582677
        },
        {
          "duration": 0.0846354166666643,
          "durationTicks": 52,
          "midi": 51,
          "name": "D#3",
          "ticks": 17448,
          "time": 28.3984375,
          "velocity": 0.49606299212598426
        },
        {
          "duration": 0.1432291666666714,
          "durationTicks": 88,
          "midi": 58,
          "name": "A#3",
          "ticks": 17536,
          "time": 28.541666666666664,
          "velocity": 0.5669291338582677
        },
        {
          "duration": 0.8658854166666643,
          "durationTicks": 532,
          "midi": 48,
          "name": "C3",
          "ticks": 17628,
          "time": 28.69140625,
          "velocity": 0.5669291338582677
        },
        {
          "duration": 0.1432291666666643,
          "durationTicks": 88,
          "midi": 57,
          "name": "A3",
          "ticks": 17712,
          "time": 28.828125,
          "velocity": 0.5433070866141733
        },
        {
          "duration": 0.13671875,
          "durationTicks": 84,
          "midi": 63,
          "name": "D#4",
          "ticks": 17812,
          "time": 28.990885416666664,
          "velocity": 0.47244094488188976
        },
        {
          "duration": 0.15625,
          "durationTicks": 96,
          "midi": 67,
          "name": "G4",
          "ticks": 17896,
          "time": 29.127604166666664,
          "velocity": 0.5433070866141733
        },
        {
          "duration": 0.13671875,
          "durationTicks": 84,
          "midi": 63,
          "name": "D#4",
          "ticks": 17992,
          "time": 29.283854166666664,
          "velocity": 0.4881889763779528
        },
        {
          "duration": 0.1497395833333357,
          "durationTicks": 92,
          "midi": 57,
          "name": "A3",
          "ticks": 18084,
          "time": 29.43359375,
          "velocity": 0.5354330708661418
        },
        {
          "duration": 0.1302083333333357,
          "durationTicks": 80,
          "midi": 63,
          "name": "D#4",
          "ticks": 18180,
          "time": 29.58984375,
          "velocity": 0.5669291338582677
        },
        {
          "duration": 0.15625,
          "durationTicks": 96,
          "midi": 57,
          "name": "A3",
          "ticks": 18272,
          "time": 29.739583333333336,
          "velocity": 0.5354330708661418
        },
        {
          "duration": 0.1171875,
          "durationTicks": 72,
          "midi": 48,
          "name": "C3",
          "ticks": 18364,
          "time": 29.889322916666664,
          "velocity": 0.5984251968503937
        },
        {
          "duration": 0.1627604166666643,
          "durationTicks": 100,
          "midi": 57,
          "name": "A3",
          "ticks": 18452,
          "time": 30.032552083333336,
          "velocity": 0.5433070866141733
        },
        {
          "duration": 0.1041666666666714,
          "durationTicks": 64,
          "midi": 45,
          "name": "A2",
          "ticks": 18544,
          "time": 30.182291666666664,
          "velocity": 0.6141732283464567
        },
        {
          "duration": 0.1627604166666643,
          "durationTicks": 100,
          "midi": 57,
          "name": "A3",
          "ticks": 18636,
          "time": 30.33203125,
          "velocity": 0.5354330708661418
        },
        {
          "duration": 0.7096354166666714,
          "durationTicks": 436,
          "midi": 38,
          "name": "D2",
          "ticks": 18724,
          "time": 30.475260416666664,
          "velocity": 0.5826771653543307
        },
        {
          "duration": 0.15625,
          "durationTicks": 96,
          "midi": 57,
          "name": "A3",
          "ticks": 18812,
          "time": 30.618489583333336,
          "velocity": 0.5196850393700787
        },
        {
          "duration": 0.1302083333333357,
          "durationTicks": 80,
          "midi": 60,
          "name": "C4",
          "ticks": 18916,
          "time": 30.787760416666664,
          "velocity": 0.5590551181102362
        },
        {
          "duration": 0.13671875,
          "durationTicks": 84,
          "midi": 66,
          "name": "F#4",
          "ticks": 19000,
          "time": 30.924479166666664,
          "velocity": 0.5118110236220472
        },
        {
          "duration": 0.1236979166666643,
          "durationTicks": 76,
          "midi": 60,
          "name": "C4",
          "ticks": 19092,
          "time": 31.07421875,
          "velocity": 0.5118110236220472
        },
        {
          "duration": 0.1497395833333357,
          "durationTicks": 92,
          "midi": 57,
          "name": "A3",
          "ticks": 19180,
          "time": 31.217447916666664,
          "velocity": 0.4881889763779528
        },
        {
          "duration": 0.1171875,
          "durationTicks": 72,
          "midi": 60,
          "name": "C4",
          "ticks": 19280,
          "time": 31.380208333333336,
          "velocity": 0.5354330708661418
        },
        {
          "duration": 0.1497395833333286,
          "durationTicks": 92,
          "midi": 57,
          "name": "A3",
          "ticks": 19364,
          "time": 31.516927083333336,
          "velocity": 0.5433070866141733
        },
        {
          "duration": 0.1171875,
          "durationTicks": 72,
          "midi": 50,
          "name": "D3",
          "ticks": 19460,
          "time": 31.673177083333336,
          "velocity": 0.5669291338582677
        },
        {
          "duration": 0.1627604166666643,
          "durationTicks": 100,
          "midi": 57,
          "name": "A3",
          "ticks": 19544,
          "time": 31.809895833333336,
          "velocity": 0.5826771653543307
        },
        {
          "duration": 0.1106770833333357,
          "durationTicks": 68,
          "midi": 45,
          "name": "A2",
          "ticks": 19644,
          "time": 31.97265625,
          "velocity": 0.5669291338582677
        },
        {
          "duration": 0.1822916666666643,
          "durationTicks": 112,
          "midi": 57,
          "name": "A3",
          "ticks": 19724,
          "time": 32.102864583333336,
          "velocity": 0.5354330708661418
        },
        {
          "duration": 0.6640625,
          "durationTicks": 408,
          "midi": 38,
          "name": "D2",
          "ticks": 19824,
          "time": 32.265625,
          "velocity": 0.5984251968503937
        },
        {
          "duration": 0.1497395833333357,
          "durationTicks": 92,
          "midi": 57,
          "name": "A3",
          "ticks": 19912,
          "time": 32.408854166666664,
          "velocity": 0.5354330708661418
        },
        {
          "duration": 0.13671875,
          "durationTicks": 84,
          "midi": 60,
          "name": "C4",
          "ticks": 20016,
          "time": 32.578125,
          "velocity": 0.5354330708661418
        },
        {
          "duration": 0.13671875,
          "durationTicks": 84,
          "midi": 66,
          "name": "F#4",
          "ticks": 20100,
          "time": 32.71484375,
          "velocity": 0.5039370078740157
        },
        {
          "duration": 0.1432291666666643,
          "durationTicks": 88,
          "midi": 60,
          "name": "C4",
          "ticks": 20192,
          "time": 32.864583333333336,
          "velocity": 0.5118110236220472
        },
        {
          "duration": 0.1497395833333286,
          "durationTicks": 92,
          "midi": 57,
          "name": "A3",
          "ticks": 20288,
          "time": 33.020833333333336,
          "velocity": 0.5039370078740157
        },
        {
          "duration": 0.1236979166666714,
          "durationTicks": 76,
          "midi": 60,
          "name": "C4",
          "ticks": 20380,
          "time": 33.170572916666664,
          "velocity": 0.5354330708661418
        },
        {
          "duration": 0.1497395833333357,
          "durationTicks": 92,
          "midi": 57,
          "name": "A3",
          "ticks": 20464,
          "time": 33.307291666666664,
          "velocity": 0.5354330708661418
        },
        {
          "duration": 0.13671875,
          "durationTicks": 84,
          "midi": 50,
          "name": "D3",
          "ticks": 20556,
          "time": 33.45703125,
          "velocity": 0.5590551181102362
        },
        {
          "duration": 0.1627604166666714,
          "durationTicks": 100,
          "midi": 57,
          "name": "A3",
          "ticks": 20644,
          "time": 33.600260416666664,
          "velocity": 0.5354330708661418
        },
        {
          "duration": 0.1236979166666643,
          "durationTicks": 76,
          "midi": 45,
          "name": "A2",
          "ticks": 20736,
          "time": 33.75,
          "velocity": 0.5826771653543307
        },
        {
          "duration": 0.15625,
          "durationTicks": 96,
          "midi": 57,
          "name": "A3",
          "ticks": 20832,
          "time": 33.90625,
          "velocity": 0.5354330708661418
        },
        {
          "duration": 0.87890625,
          "durationTicks": 540,
          "midi": 38,
          "name": "D2",
          "ticks": 20920,
          "time": 34.049479166666664,
          "velocity": 0.5984251968503937
        },
        {
          "duration": 0.1627604166666643,
          "durationTicks": 100,
          "midi": 58,
          "name": "A#3",
          "ticks": 21012,
          "time": 34.19921875,
          "velocity": 0.5196850393700787
        },
        {
          "duration": 0.13671875,
          "durationTicks": 84,
          "midi": 62,
          "name": "D4",
          "ticks": 21108,
          "time": 34.35546875,
          "velocity": 0.5984251968503937
        },
        {
          "duration": 0.1497395833333357,
          "durationTicks": 92,
          "midi": 67,
          "name": "G4",
          "ticks": 21192,
          "time": 34.4921875,
          "velocity": 0.5984251968503937
        },
        {
          "duration": 0.1432291666666643,
          "durationTicks": 88,
          "midi": 62,
          "name": "D4",
          "ticks": 21288,
          "time": 34.6484375,
          "velocity": 0.5590551181102362
        },
        {
          "duration": 0.13671875,
          "durationTicks": 84,
          "midi": 58,
          "name": "A#3",
          "ticks": 21384,
          "time": 34.8046875,
          "velocity": 0.5196850393700787
        },
        {
          "duration": 0.1302083333333286,
          "durationTicks": 80,
          "midi": 62,
          "name": "D4",
          "ticks": 21476,
          "time": 34.954427083333336,
          "velocity": 0.6141732283464567
        },
        {
          "duration": 0.13671875,
          "durationTicks": 84,
          "midi": 58,
          "name": "A#3",
          "ticks": 21564,
          "time": 35.09765625,
          "velocity": 0.6771653543307087
        },
        {
          "duration": 0.1497395833333357,
          "durationTicks": 92,
          "midi": 50,
          "name": "D3",
          "ticks": 21660,
          "time": 35.25390625,
          "velocity": 0.5826771653543307
        },
        {
          "duration": 0.1692708333333357,
          "durationTicks": 104,
          "midi": 58,
          "name": "A#3",
          "ticks": 21748,
          "time": 35.397135416666664,
          "velocity": 0.5433070866141733
        },
        {
          "duration": 0.1106770833333357,
          "durationTicks": 68,
          "midi": 46,
          "name": "A#2",
          "ticks": 21844,
          "time": 35.553385416666664,
          "velocity": 0.6141732283464567
        },
        {
          "duration": 0.1497395833333286,
          "durationTicks": 92,
          "midi": 58,
          "name": "A#3",
          "ticks": 21932,
          "time": 35.696614583333336,
          "velocity": 0.5433070866141733
        },
        {
          "duration": 0.7552083333333357,
          "durationTicks": 464,
          "midi": 38,
          "name": "D2",
          "ticks": 22024,
          "time": 35.846354166666664,
          "velocity": 0.6141732283464567
        },
        {
          "duration": 0.1627604166666643,
          "durationTicks": 100,
          "midi": 60,
          "name": "C4",
          "ticks": 22112,
          "time": 35.989583333333336,
          "velocity": 0.5039370078740157
        },
        {
          "duration": 0.1432291666666714,
          "durationTicks": 88,
          "midi": 66,
          "name": "F#4",
          "ticks": 22204,
          "time": 36.139322916666664,
          "velocity": 0.5590551181102362
        },
        {
          "duration": 0.1432291666666643,
          "durationTicks": 88,
          "midi": 69,
          "name": "A4",
          "ticks": 22296,
          "time": 36.2890625,
          "velocity": 0.5590551181102362
        },
        {
          "duration": 0.1302083333333286,
          "durationTicks": 80,
          "midi": 66,
          "name": "F#4",
          "ticks": 22388,
          "time": 36.438802083333336,
          "velocity": 0.49606299212598426
        },
        {
          "duration": 0.1692708333333357,
          "durationTicks": 104,
          "midi": 60,
          "name": "C4",
          "ticks": 22476,
          "time": 36.58203125,
          "velocity": 0.47244094488188976
        },
        {
          "duration": 0.1171875,
          "durationTicks": 72,
          "midi": 66,
          "name": "F#4",
          "ticks": 22572,
          "time": 36.73828125,
          "velocity": 0.5354330708661418
        },
        {
          "duration": 0.1627604166666643,
          "durationTicks": 100,
          "midi": 60,
          "name": "C4",
          "ticks": 22656,
          "time": 36.875,
          "velocity": 0.5196850393700787
        },
        {
          "duration": 0.1497395833333286,
          "durationTicks": 92,
          "midi": 51,
          "name": "D#3",
          "ticks": 22748,
          "time": 37.024739583333336,
          "velocity": 0.49606299212598426
        },
        {
          "duration": 0.1627604166666643,
          "durationTicks": 100,
          "midi": 60,
          "name": "C4",
          "ticks": 22844,
          "time": 37.180989583333336,
          "velocity": 0.5590551181102362
        },
        {
          "duration": 0.1302083333333357,
          "durationTicks": 80,
          "midi": 48,
          "name": "C3",
          "ticks": 22936,
          "time": 37.330729166666664,
          "velocity": 0.5984251968503937
        },
        {
          "duration": 0.1302083333333357,
          "durationTicks": 80,
          "midi": 60,
          "name": "C4",
          "ticks": 23032,
          "time": 37.486979166666664,
          "velocity": 0.5196850393700787
        },
        {
          "duration": 1.0026041666666643,
          "durationTicks": 616,
          "midi": 38,
          "name": "D2",
          "ticks": 23124,
          "time": 37.63671875,
          "velocity": 0.6141732283464567
        },
        {
          "duration": 0.1497395833333357,
          "durationTicks": 92,
          "midi": 62,
          "name": "D4",
          "ticks": 23212,
          "time": 37.779947916666664,
          "velocity": 0.5118110236220472
        },
        {
          "duration": 0.1302083333333286,
          "durationTicks": 80,
          "midi": 67,
          "name": "G4",
          "ticks": 23312,
          "time": 37.942708333333336,
          "velocity": 0.5669291338582677
        },
        {
          "duration": 0.1302083333333286,
          "durationTicks": 80,
          "midi": 70,
          "name": "A#4",
          "ticks": 23396,
          "time": 38.079427083333336,
          "velocity": 0.5118110236220472
        },
        {
          "duration": 0.1302083333333357,
          "durationTicks": 80,
          "midi": 67,
          "name": "G4",
          "ticks": 23484,
          "time": 38.22265625,
          "velocity": 0.5354330708661418
        },
        {
          "duration": 0.1692708333333357,
          "durationTicks": 104,
          "midi": 62,
          "name": "D4",
          "ticks": 23572,
          "time": 38.365885416666664,
          "velocity": 0.5118110236220472
        },
        {
          "duration": 0.1302083333333286,
          "durationTicks": 80,
          "midi": 67,
          "name": "G4",
          "ticks": 23672,
          "time": 38.528645833333336,
          "velocity": 0.5196850393700787
        },
        {
          "duration": 0.1432291666666714,
          "durationTicks": 88,
          "midi": 62,
          "name": "D4",
          "ticks": 23764,
          "time": 38.678385416666664,
          "velocity": 0.5590551181102362
        },
        {
          "duration": 0.13671875,
          "durationTicks": 84,
          "midi": 55,
          "name": "G3",
          "ticks": 23852,
          "time": 38.821614583333336,
          "velocity": 0.5590551181102362
        },
        {
          "duration": 0.1627604166666643,
          "durationTicks": 100,
          "midi": 62,
          "name": "D4",
          "ticks": 23940,
          "time": 38.96484375,
          "velocity": 0.5590551181102362
        },
        {
          "duration": 0.13671875,
          "durationTicks": 84,
          "midi": 50,
          "name": "D3",
          "ticks": 24032,
          "time": 39.114583333333336,
          "velocity": 0.5826771653543307
        },
        {
          "duration": 0.1627604166666643,
          "durationTicks": 100,
          "midi": 62,
          "name": "D4",
          "ticks": 24120,
          "time": 39.2578125,
          "velocity": 0.5590551181102362
        },
        {
          "duration": 0.8854166666666643,
          "durationTicks": 544,
          "midi": 38,
          "name": "D2",
          "ticks": 24220,
          "time": 39.420572916666664,
          "velocity": 0.6141732283464567
        },
        {
          "duration": 0.13671875,
          "durationTicks": 84,
          "midi": 62,
          "name": "D4",
          "ticks": 24308,
          "time": 39.563802083333336,
          "velocity": 0.5354330708661418
        },
        {
          "duration": 0.1302083333333357,
          "durationTicks": 80,
          "midi": 66,
          "name": "F#4",
          "ticks": 24408,
          "time": 39.7265625,
          "velocity": 0.4881889763779528
        },
        {
          "duration": 0.1432291666666714,
          "durationTicks": 88,
          "midi": 72,
          "name": "C5",
          "ticks": 24492,
          "time": 39.86328125,
          "velocity": 0.5590551181102362
        },
        {
          "duration": 0.1302083333333428,
          "durationTicks": 80,
          "midi": 66,
          "name": "F#4",
          "ticks": 24584,
          "time": 40.01302083333333,
          "velocity": 0.47244094488188976
        },
        {
          "duration": 0.17578125,
          "durationTicks": 108,
          "midi": 62,
          "name": "D4",
          "ticks": 24672,
          "time": 40.15625,
          "velocity": 0.5354330708661418
        },
        {
          "duration": 0.1171875,
          "durationTicks": 72,
          "midi": 66,
          "name": "F#4",
          "ticks": 24776,
          "time": 40.32552083333333,
          "velocity": 0.4645669291338583
        },
        {
          "duration": 0.1627604166666572,
          "durationTicks": 100,
          "midi": 62,
          "name": "D4",
          "ticks": 24856,
          "time": 40.45572916666667,
          "velocity": 0.49606299212598426
        },
        {
          "duration": 0.1497395833333286,
          "durationTicks": 92,
          "midi": 57,
          "name": "A3",
          "ticks": 24952,
          "time": 40.61197916666667,
          "velocity": 0.5196850393700787
        },
        {
          "duration": 0.1692708333333286,
          "durationTicks": 104,
          "midi": 62,
          "name": "D4",
          "ticks": 25036,
          "time": 40.74869791666667,
          "velocity": 0.5039370078740157
        },
        {
          "duration": 0.13671875,
          "durationTicks": 84,
          "midi": 54,
          "name": "F#3",
          "ticks": 25136,
          "time": 40.91145833333333,
          "velocity": 0.5118110236220472
        },
        {
          "duration": 0.1497395833333428,
          "durationTicks": 92,
          "midi": 62,
          "name": "D4",
          "ticks": 25232,
          "time": 41.06770833333333,
          "velocity": 0.5118110236220472
        },
        {
          "duration": 0.7356770833333286,
          "durationTicks": 452,
          "midi": 39,
          "name": "D#2",
          "ticks": 25324,
          "time": 41.21744791666667,
          "velocity": 0.5118110236220472
        },
        {
          "duration": 0.1822916666666714,
          "durationTicks": 112,
          "midi": 61,
          "name": "C#4",
          "ticks": 25404,
          "time": 41.34765625,
          "velocity": 0.48031496062992124
        },
        {
          "duration": 0.1497395833333286,
          "durationTicks": 92,
          "midi": 67,
          "name": "G4",
          "ticks": 25504,
          "time": 41.51041666666667,
          "velocity": 0.5354330708661418
        },
        {
          "duration": 0.1432291666666714,
          "durationTicks": 88,
          "midi": 70,
          "name": "A#4",
          "ticks": 25592,
          "time": 41.65364583333333,
          "velocity": 0.47244094488188976
        },
        {
          "duration": 0.1497395833333286,
          "durationTicks": 92,
          "midi": 67,
          "name": "G4",
          "ticks": 25680,
          "time": 41.796875,
          "velocity": 0.5590551181102362
        },
        {
          "duration": 0.1692708333333428,
          "durationTicks": 104,
          "midi": 61,
          "name": "C#4",
          "ticks": 25772,
          "time": 41.94661458333333,
          "velocity": 0.44881889763779526
        },
        {
          "duration": 0.1432291666666714,
          "durationTicks": 88,
          "midi": 67,
          "name": "G4",
          "ticks": 25868,
          "time": 42.10286458333333,
          "velocity": 0.5433070866141733
        },
        {
          "duration": 0.1627604166666572,
          "durationTicks": 100,
          "midi": 61,
          "name": "C#4",
          "ticks": 25960,
          "time": 42.25260416666667,
          "velocity": 0.4566929133858268
        },
        {
          "duration": 0.1432291666666714,
          "durationTicks": 88,
          "midi": 55,
          "name": "G3",
          "ticks": 26052,
          "time": 42.40234375,
          "velocity": 0.5118110236220472
        },
        {
          "duration": 0.1497395833333286,
          "durationTicks": 92,
          "midi": 61,
          "name": "C#4",
          "ticks": 26140,
          "time": 42.54557291666667,
          "velocity": 0.49606299212598426
        },
        {
          "duration": 0.13671875,
          "durationTicks": 84,
          "midi": 51,
          "name": "D#3",
          "ticks": 26232,
          "time": 42.6953125,
          "velocity": 0.4881889763779528
        },
        {
          "duration": 0.1627604166666714,
          "durationTicks": 100,
          "midi": 61,
          "name": "C#4",
          "ticks": 26324,
          "time": 42.84505208333333,
          "velocity": 0.4409448818897638
        },
        {
          "duration": 0.7486979166666572,
          "durationTicks": 460,
          "midi": 38,
          "name": "D2",
          "ticks": 26416,
          "time": 42.99479166666667,
          "velocity": 0.5354330708661418
        },
        {
          "duration": 0.15625,
          "durationTicks": 96,
          "midi": 60,
          "name": "C4",
          "ticks": 26500,
          "time": 43.13151041666667,
          "velocity": 0.4645669291338583
        },
        {
          "duration": 0.13671875,
          "durationTicks": 84,
          "midi": 63,
          "name": "D#4",
          "ticks": 26596,
          "time": 43.28776041666667,
          "velocity": 0.4645669291338583
        },
        {
          "duration": 0.1497395833333286,
          "durationTicks": 92,
          "midi": 69,
          "name": "A4",
          "ticks": 26680,
          "time": 43.42447916666667,
          "velocity": 0.5196850393700787
        },
        {
          "duration": 0.1302083333333286,
          "durationTicks": 80,
          "midi": 63,
          "name": "D#4",
          "ticks": 26776,
          "time": 43.58072916666667,
          "velocity": 0.47244094488188976
        },
        {
          "duration": 0.1627604166666714,
          "durationTicks": 100,
          "midi": 60,
          "name": "C4",
          "ticks": 26868,
          "time": 43.73046875,
          "velocity": 0.47244094488188976
        },
        {
          "duration": 0.1236979166666714,
          "durationTicks": 76,
          "midi": 63,
          "name": "D#4",
          "ticks": 26964,
          "time": 43.88671875,
          "velocity": 0.47244094488188976
        },
        {
          "duration": 0.1497395833333428,
          "durationTicks": 92,
          "midi": 60,
          "name": "C4",
          "ticks": 27056,
          "time": 44.03645833333333,
          "velocity": 0.47244094488188976
        },
        {
          "duration": 0.1432291666666714,
          "durationTicks": 88,
          "midi": 54,
          "name": "F#3",
          "ticks": 27144,
          "time": 44.1796875,
          "velocity": 0.4645669291338583
        },
        {
          "duration": 0.1627604166666714,
          "durationTicks": 100,
          "midi": 60,
          "name": "C4",
          "ticks": 27236,
          "time": 44.32942708333333,
          "velocity": 0.48031496062992124
        },
        {
          "duration": 0.1106770833333286,
          "durationTicks": 68,
          "midi": 50,
          "name": "D3",
          "ticks": 27336,
          "time": 44.4921875,
          "velocity": 0.4881889763779528
        },
        {
          "duration": 0.1171875,
          "durationTicks": 72,
          "midi": 60,
          "name": "C4",
          "ticks": 27424,
          "time": 44.63541666666667,
          "velocity": 0.4409448818897638
        },
        {
          "duration": 0.7356770833333428,
          "durationTicks": 452,
          "midi": 38,
          "name": "D2",
          "ticks": 27512,
          "time": 44.77864583333333,
          "velocity": 0.5039370078740157
        },
        {
          "duration": 0.2018229166666714,
          "durationTicks": 124,
          "midi": 58,
          "name": "A#3",
          "ticks": 27600,
          "time": 44.921875,
          "velocity": 0.4409448818897638
        },
        {
          "duration": 0.13671875,
          "durationTicks": 84,
          "midi": 64,
          "name": "E4",
          "ticks": 27700,
          "time": 45.08463541666667,
          "velocity": 0.4645669291338583
        },
        {
          "duration": 0.15625,
          "durationTicks": 96,
          "midi": 67,
          "name": "G4",
          "ticks": 27784,
          "time": 45.22135416666667,
          "velocity": 0.5039370078740157
        },
        {
          "duration": 0.1302083333333428,
          "durationTicks": 80,
          "midi": 64,
          "name": "E4",
          "ticks": 27884,
          "time": 45.38411458333333,
          "velocity": 0.5039370078740157
        },
        {
          "duration": 0.1497395833333428,
          "durationTicks": 92,
          "midi": 58,
          "name": "A#3",
          "ticks": 27968,
          "time": 45.52083333333333,
          "velocity": 0.44881889763779526
        },
        {
          "duration": 0.1302083333333428,
          "durationTicks": 80,
          "midi": 64,
          "name": "E4",
          "ticks": 28064,
          "time": 45.67708333333333,
          "velocity": 0.5354330708661418
        },
        {
          "duration": 0.1432291666666714,
          "durationTicks": 88,
          "midi": 58,
          "name": "A#3",
          "ticks": 28160,
          "time": 45.83333333333333,
          "velocity": 0.4645669291338583
        },
        {
          "duration": 0.1302083333333286,
          "durationTicks": 80,
          "midi": 52,
          "name": "E3",
          "ticks": 28248,
          "time": 45.9765625,
          "velocity": 0.49606299212598426
        },
        {
          "duration": 0.1497395833333286,
          "durationTicks": 92,
          "midi": 58,
          "name": "A#3",
          "ticks": 28332,
          "time": 46.11328125,
          "velocity": 0.4645669291338583
        },
        {
          "duration": 0.1236979166666714,
          "durationTicks": 76,
          "midi": 49,
          "name": "C#3",
          "ticks": 28428,
          "time": 46.26953125,
          "velocity": 0.5039370078740157
        },
        {
          "duration": 0.1627604166666572,
          "durationTicks": 100,
          "midi": 58,
          "name": "A#3",
          "ticks": 28516,
          "time": 46.41276041666667,
          "velocity": 0.44881889763779526
        },
        {
          "duration": 0.7421875,
          "durationTicks": 456,
          "midi": 38,
          "name": "D2",
          "ticks": 28616,
          "time": 46.57552083333333,
          "velocity": 0.5433070866141733
        },
        {
          "duration": 0.1627604166666714,
          "durationTicks": 100,
          "midi": 57,
          "name": "A3",
          "ticks": 28700,
          "time": 46.71223958333333,
          "velocity": 0.47244094488188976
        },
        {
          "duration": 0.1432291666666714,
          "durationTicks": 88,
          "midi": 60,
          "name": "C4",
          "ticks": 28800,
          "time": 46.875,
          "velocity": 0.44881889763779526
        },
        {
          "duration": 0.15625,
          "durationTicks": 96,
          "midi": 67,
          "name": "G4",
          "ticks": 28884,
          "time": 47.01171875,
          "velocity": 0.5118110236220472
        },
        {
          "duration": 0.12369791666665719,
          "durationTicks": 76,
          "midi": 60,
          "name": "C4",
          "ticks": 28984,
          "time": 47.17447916666667,
          "velocity": 0.47244094488188976
        },
        {
          "duration": 0.1822916666666714,
          "durationTicks": 112,
          "midi": 57,
          "name": "A3",
          "ticks": 29072,
          "time": 47.31770833333333,
          "velocity": 0.4881889763779528
        },
        {
          "duration": 0.1171875,
          "durationTicks": 72,
          "midi": 60,
          "name": "C4",
          "ticks": 29168,
          "time": 47.47395833333333,
          "velocity": 0.3937007874015748
        },
        {
          "duration": 0.15625,
          "durationTicks": 96,
          "midi": 57,
          "name": "A3",
          "ticks": 29256,
          "time": 47.6171875,
          "velocity": 0.47244094488188976
        },
        {
          "duration": 0.1432291666666714,
          "durationTicks": 88,
          "midi": 51,
          "name": "D#3",
          "ticks": 29340,
          "time": 47.75390625,
          "velocity": 0.4645669291338583
        },
        {
          "duration": 0.1692708333333428,
          "durationTicks": 104,
          "midi": 57,
          "name": "A3",
          "ticks": 29432,
          "time": 47.90364583333333,
          "velocity": 0.47244094488188976
        },
        {
          "duration": 0.1106770833333286,
          "durationTicks": 68,
          "midi": 48,
          "name": "C3",
          "ticks": 29532,
          "time": 48.06640625,
          "velocity": 0.4881889763779528
        },
        {
          "duration": 0.1692708333333286,
          "durationTicks": 104,
          "midi": 57,
          "name": "A3",
          "ticks": 29616,
          "time": 48.203125,
          "velocity": 0.47244094488188976
        },
        {
          "duration": 0.64453125,
          "durationTicks": 396,
          "midi": 38,
          "name": "D2",
          "ticks": 29716,
          "time": 48.36588541666667,
          "velocity": 0.5433070866141733
        },
        {
          "duration": 0.1627604166666572,
          "durationTicks": 100,
          "midi": 57,
          "name": "A3",
          "ticks": 29800,
          "time": 48.50260416666667,
          "velocity": 0.4645669291338583
        },
        {
          "duration": 0.13671875,
          "durationTicks": 84,
          "midi": 60,
          "name": "C4",
          "ticks": 29904,
          "time": 48.671875,
          "velocity": 0.4094488188976378
        },
        {
          "duration": 0.1432291666666714,
          "durationTicks": 88,
          "midi": 66,
          "name": "F#4",
          "ticks": 29988,
          "time": 48.80859375,
          "velocity": 0.47244094488188976
        },
        {
          "duration": 0.1497395833333286,
          "durationTicks": 92,
          "midi": 60,
          "name": "C4",
          "ticks": 30084,
          "time": 48.96484375,
          "velocity": 0.4881889763779528
        },
        {
          "duration": 0.13671875,
          "durationTicks": 84,
          "midi": 57,
          "name": "A3",
          "ticks": 30180,
          "time": 49.12109375,
          "velocity": 0.4645669291338583
        },
        {
          "duration": 0.12369791666665719,
          "durationTicks": 76,
          "midi": 60,
          "name": "C4",
          "ticks": 30268,
          "time": 49.26432291666667,
          "velocity": 0.4645669291338583
        },
        {
          "duration": 0.15625,
          "durationTicks": 96,
          "midi": 57,
          "name": "A3",
          "ticks": 30356,
          "time": 49.40755208333333,
          "velocity": 0.4645669291338583
        },
        {
          "duration": 0.1302083333333428,
          "durationTicks": 80,
          "midi": 50,
          "name": "D3",
          "ticks": 30452,
          "time": 49.56380208333333,
          "velocity": 0.5196850393700787
        },
        {
          "duration": 0.15625,
          "durationTicks": 96,
          "midi": 57,
          "name": "A3",
          "ticks": 30536,
          "time": 49.70052083333333,
          "velocity": 0.47244094488188976
        },
        {
          "duration": 0.1171875,
          "durationTicks": 72,
          "midi": 45,
          "name": "A2",
          "ticks": 30632,
          "time": 49.85677083333333,
          "velocity": 0.5669291338582677
        },
        {
          "duration": 0.1627604166666572,
          "durationTicks": 100,
          "midi": 57,
          "name": "A3",
          "ticks": 30724,
          "time": 50.00651041666667,
          "velocity": 0.47244094488188976
        },
        {
          "duration": 0.60546875,
          "durationTicks": 372,
          "midi": 38,
          "name": "D2",
          "ticks": 30812,
          "time": 50.14973958333333,
          "velocity": 0.49606299212598426
        },
        {
          "duration": 0.1692708333333286,
          "durationTicks": 104,
          "midi": 55,
          "name": "G3",
          "ticks": 30904,
          "time": 50.29947916666667,
          "velocity": 0.44881889763779526
        },
        {
          "duration": 0.1432291666666714,
          "durationTicks": 88,
          "midi": 58,
          "name": "A#3",
          "ticks": 30996,
          "time": 50.44921875,
          "velocity": 0.47244094488188976
        },
        {
          "duration": 0.1627604166666714,
          "durationTicks": 100,
          "midi": 64,
          "name": "E4",
          "ticks": 31080,
          "time": 50.5859375,
          "velocity": 0.49606299212598426
        },
        {
          "duration": 0.1171875,
          "durationTicks": 72,
          "midi": 58,
          "name": "A#3",
          "ticks": 31184,
          "time": 50.75520833333333,
          "velocity": 0.4645669291338583
        },
        {
          "duration": 0.1432291666666714,
          "durationTicks": 88,
          "midi": 55,
          "name": "G3",
          "ticks": 31272,
          "time": 50.8984375,
          "velocity": 0.44881889763779526
        },
        {
          "duration": 0.1171875,
          "durationTicks": 72,
          "midi": 58,
          "name": "A#3",
          "ticks": 31356,
          "time": 51.03515625,
          "velocity": 0.44881889763779526
        },
        {
          "duration": 0.1627604166666572,
          "durationTicks": 100,
          "midi": 55,
          "name": "G3",
          "ticks": 31444,
          "time": 51.17838541666667,
          "velocity": 0.4409448818897638
        },
        {
          "duration": 0.1432291666666714,
          "durationTicks": 88,
          "midi": 49,
          "name": "C#3",
          "ticks": 31536,
          "time": 51.328125,
          "velocity": 0.4645669291338583
        },
        {
          "duration": 0.15625,
          "durationTicks": 96,
          "midi": 55,
          "name": "G3",
          "ticks": 31632,
          "time": 51.484375,
          "velocity": 0.47244094488188976
        },
        {
          "duration": 0.1302083333333428,
          "durationTicks": 80,
          "midi": 46,
          "name": "A#2",
          "ticks": 31724,
          "time": 51.63411458333333,
          "velocity": 0.49606299212598426
        },
        {
          "duration": 0.1432291666666714,
          "durationTicks": 88,
          "midi": 55,
          "name": "G3",
          "ticks": 31812,
          "time": 51.77734375,
          "velocity": 0.47244094488188976
        },
        {
          "duration": 0.7552083333333286,
          "durationTicks": 464,
          "midi": 38,
          "name": "D2",
          "ticks": 31908,
          "time": 51.93359375,
          "velocity": 0.48031496062992124
        },
        {
          "duration": 0.1953125,
          "durationTicks": 120,
          "midi": 54,
          "name": "F#3",
          "ticks": 31988,
          "time": 52.06380208333333,
          "velocity": 0.48031496062992124
        },
        {
          "duration": 0.1497395833333428,
          "durationTicks": 92,
          "midi": 57,
          "name": "A3",
          "ticks": 32096,
          "time": 52.23958333333333,
          "velocity": 0.4881889763779528
        },
        {
          "duration": 0.1497395833333428,
          "durationTicks": 92,
          "midi": 63,
          "name": "D#4",
          "ticks": 32180,
          "time": 52.37630208333333,
          "velocity": 0.4645669291338583
        },
        {
          "duration": 0.13671875,
          "durationTicks": 84,
          "midi": 57,
          "name": "A3",
          "ticks": 32276,
          "time": 52.53255208333333,
          "velocity": 0.5039370078740157
        },
        {
          "duration": 0.1627604166666572,
          "durationTicks": 100,
          "midi": 54,
          "name": "F#3",
          "ticks": 32368,
          "time": 52.68229166666667,
          "velocity": 0.4566929133858268
        },
        {
          "duration": 0.1236979166666714,
          "durationTicks": 76,
          "midi": 57,
          "name": "A3",
          "ticks": 32468,
          "time": 52.84505208333333,
          "velocity": 0.5039370078740157
        },
        {
          "duration": 0.1497395833333286,
          "durationTicks": 92,
          "midi": 54,
          "name": "F#3",
          "ticks": 32556,
          "time": 52.98828125,
          "velocity": 0.44881889763779526
        },
        {
          "duration": 0.1302083333333286,
          "durationTicks": 80,
          "midi": 48,
          "name": "C3",
          "ticks": 32640,
          "time": 53.125,
          "velocity": 0.4881889763779528
        },
        {
          "duration": 0.17578125,
          "durationTicks": 108,
          "midi": 54,
          "name": "F#3",
          "ticks": 32724,
          "time": 53.26171875,
          "velocity": 0.4566929133858268
        },
        {
          "duration": 0.1302083333333286,
          "durationTicks": 80,
          "midi": 45,
          "name": "A2",
          "ticks": 32824,
          "time": 53.42447916666667,
          "velocity": 0.5039370078740157
        },
        {
          "duration": 0.15625,
          "durationTicks": 96,
          "midi": 54,
          "name": "F#3",
          "ticks": 32912,
          "time": 53.56770833333333,
          "velocity": 0.48031496062992124
        },
        {
          "duration": 0.8528645833333286,
          "durationTicks": 524,
          "midi": 38,
          "name": "D2",
          "ticks": 33012,
          "time": 53.73046875,
          "velocity": 0.5196850393700787
        },
        {
          "duration": 0.15625,
          "durationTicks": 96,
          "midi": 55,
          "name": "G3",
          "ticks": 33096,
          "time": 53.8671875,
          "velocity": 0.47244094488188976
        },
        {
          "duration": 0.15625,
          "durationTicks": 96,
          "midi": 58,
          "name": "A#3",
          "ticks": 33188,
          "time": 54.01692708333333,
          "velocity": 0.44881889763779526
        },
        {
          "duration": 0.1497395833333286,
          "durationTicks": 92,
          "midi": 62,
          "name": "D4",
          "ticks": 33280,
          "time": 54.16666666666667,
          "velocity": 0.47244094488188976
        },
        {
          "duration": 0.13671875,
          "durationTicks": 84,
          "midi": 58,
          "name": "A#3",
          "ticks": 33372,
          "time": 54.31640625,
          "velocity": 0.47244094488188976
        },
        {
          "duration": 0.1497395833333286,
          "durationTicks": 92,
          "midi": 55,
          "name": "G3",
          "ticks": 33468,
          "time": 54.47265625,
          "velocity": 0.4566929133858268
        },
        {
          "duration": 0.1236979166666714,
          "durationTicks": 76,
          "midi": 58,
          "name": "A#3",
          "ticks": 33552,
          "time": 54.609375,
          "velocity": 0.4645669291338583
        },
        {
          "duration": 0.1627604166666714,
          "durationTicks": 100,
          "midi": 55,
          "name": "G3",
          "ticks": 33648,
          "time": 54.765625,
          "velocity": 0.4645669291338583
        },
        {
          "duration": 0.1432291666666572,
          "durationTicks": 88,
          "midi": 46,
          "name": "A#2",
          "ticks": 33736,
          "time": 54.90885416666667,
          "velocity": 0.47244094488188976
        },
        {
          "duration": 0.15625,
          "durationTicks": 96,
          "midi": 55,
          "name": "G3",
          "ticks": 33828,
          "time": 55.05859375,
          "velocity": 0.4645669291338583
        },
        {
          "duration": 0.13671875,
          "durationTicks": 84,
          "midi": 43,
          "name": "G2",
          "ticks": 33920,
          "time": 55.20833333333333,
          "velocity": 0.4881889763779528
        },
        {
          "duration": 0.1627604166666572,
          "durationTicks": 100,
          "midi": 55,
          "name": "G3",
          "ticks": 34012,
          "time": 55.35807291666667,
          "velocity": 0.4645669291338583
        },
        {
          "duration": 0.8984375,
          "durationTicks": 552,
          "midi": 38,
          "name": "D2",
          "ticks": 34108,
          "time": 55.51432291666667,
          "velocity": 0.5118110236220472
        },
        {
          "duration": 0.1497395833333428,
          "durationTicks": 92,
          "midi": 55,
          "name": "G3",
          "ticks": 34196,
          "time": 55.65755208333333,
          "velocity": 0.44881889763779526
        },
        {
          "duration": 0.1497395833333286,
          "durationTicks": 92,
          "midi": 57,
          "name": "A3",
          "ticks": 34288,
          "time": 55.80729166666667,
          "velocity": 0.47244094488188976
        },
        {
          "duration": 0.13671875,
          "durationTicks": 84,
          "midi": 60,
          "name": "C4",
          "ticks": 34384,
          "time": 55.96354166666667,
          "velocity": 0.4015748031496063
        },
        {
          "duration": 0.1432291666666714,
          "durationTicks": 88,
          "midi": 57,
          "name": "A3",
          "ticks": 34464,
          "time": 56.09375,
          "velocity": 0.4881889763779528
        },
        {
          "duration": 0.1432291666666572,
          "durationTicks": 88,
          "midi": 55,
          "name": "G3",
          "ticks": 34564,
          "time": 56.25651041666667,
          "velocity": 0.4409448818897638
        },
        {
          "duration": 0.1432291666666714,
          "durationTicks": 88,
          "midi": 57,
          "name": "A3",
          "ticks": 34652,
          "time": 56.39973958333333,
          "velocity": 0.44881889763779526
        },
        {
          "duration": 0.15625,
          "durationTicks": 96,
          "midi": 55,
          "name": "G3",
          "ticks": 34752,
          "time": 56.5625,
          "velocity": 0.44881889763779526
        },
        {
          "duration": 0.1432291666666714,
          "durationTicks": 88,
          "midi": 51,
          "name": "D#3",
          "ticks": 34832,
          "time": 56.69270833333333,
          "velocity": 0.4330708661417323
        },
        {
          "duration": 0.1497395833333286,
          "durationTicks": 92,
          "midi": 55,
          "name": "G3",
          "ticks": 34932,
          "time": 56.85546875,
          "velocity": 0.44881889763779526
        },
        {
          "duration": 0.11067708333334281,
          "durationTicks": 68,
          "midi": 48,
          "name": "C3",
          "ticks": 35024,
          "time": 57.00520833333333,
          "velocity": 0.4645669291338583
        },
        {
          "duration": 0.1497395833333428,
          "durationTicks": 92,
          "midi": 55,
          "name": "G3",
          "ticks": 35108,
          "time": 57.14192708333333,
          "velocity": 0.4645669291338583
        },
        {
          "duration": 0.7356770833333428,
          "durationTicks": 452,
          "midi": 38,
          "name": "D2",
          "ticks": 35204,
          "time": 57.29817708333333,
          "velocity": 0.4881889763779528
        },
        {
          "duration": 0.1822916666666572,
          "durationTicks": 112,
          "midi": 54,
          "name": "F#3",
          "ticks": 35284,
          "time": 57.42838541666667,
          "velocity": 0.41732283464566927
        },
        {
          "duration": 0.1497395833333428,
          "durationTicks": 92,
          "midi": 57,
          "name": "A3",
          "ticks": 35384,
          "time": 57.59114583333333,
          "velocity": 0.49606299212598426
        },
        {
          "duration": 0.1236979166666714,
          "durationTicks": 76,
          "midi": 60,
          "name": "C4",
          "ticks": 35484,
          "time": 57.75390625,
          "velocity": 0.4409448818897638
        },
        {
          "duration": 0.1236979166666714,
          "durationTicks": 76,
          "midi": 57,
          "name": "A3",
          "ticks": 35568,
          "time": 57.890625,
          "velocity": 0.5039370078740157
        },
        {
          "duration": 0.13671875,
          "durationTicks": 84,
          "midi": 54,
          "name": "F#3",
          "ticks": 35656,
          "time": 58.03385416666667,
          "velocity": 0.4645669291338583
        },
        {
          "duration": 0.1302083333333428,
          "durationTicks": 80,
          "midi": 57,
          "name": "A3",
          "ticks": 35744,
          "time": 58.17708333333333,
          "velocity": 0.49606299212598426
        },
        {
          "duration": 0.1497395833333428,
          "durationTicks": 92,
          "midi": 54,
          "name": "F#3",
          "ticks": 35840,
          "time": 58.33333333333333,
          "velocity": 0.44881889763779526
        },
        {
          "duration": 0.13671875,
          "durationTicks": 84,
          "midi": 50,
          "name": "D3",
          "ticks": 35932,
          "time": 58.48307291666667,
          "velocity": 0.5039370078740157
        },
        {
          "duration": 0.15625,
          "durationTicks": 96,
          "midi": 54,
          "name": "F#3",
          "ticks": 36020,
          "time": 58.62630208333333,
          "velocity": 0.44881889763779526
        },
        {
          "duration": 0.1236979166666714,
          "durationTicks": 76,
          "midi": 45,
          "name": "A2",
          "ticks": 36116,
          "time": 58.78255208333333,
          "velocity": 0.5196850393700787
        },
        {
          "duration": 0.15625,
          "durationTicks": 96,
          "midi": 54,
          "name": "F#3",
          "ticks": 36208,
          "time": 58.93229166666667,
          "velocity": 0.44881889763779526
        },
        {
          "duration": 0.8984375,
          "durationTicks": 552,
          "midi": 43,
          "name": "G2",
          "ticks": 36304,
          "time": 59.08854166666667,
          "velocity": 0.5039370078740157
        },
        {
          "duration": 0.17578125,
          "durationTicks": 108,
          "midi": 54,
          "name": "F#3",
          "ticks": 36388,
          "time": 59.22526041666667,
          "velocity": 0.4409448818897638
        },
        {
          "duration": 0.1236979166666714,
          "durationTicks": 76,
          "midi": 57,
          "name": "A3",
          "ticks": 36488,
          "time": 59.38802083333333,
          "velocity": 0.47244094488188976
        },
        {
          "duration": 0.1171875,
          "durationTicks": 72,
          "midi": 60,
          "name": "C4",
          "ticks": 36584,
          "time": 59.54427083333333,
          "velocity": 0.4015748031496063
        },
        {
          "duration": 0.13671875,
          "durationTicks": 84,
          "midi": 57,
          "name": "A3",
          "ticks": 36668,
          "time": 59.68098958333333,
          "velocity": 0.4645669291338583
        },
        {
          "duration": 0.1432291666666572,
          "durationTicks": 88,
          "midi": 54,
          "name": "F#3",
          "ticks": 36760,
          "time": 59.83072916666667,
          "velocity": 0.4094488188976378
        },
        {
          "duration": 0.1432291666666572,
          "durationTicks": 88,
          "midi": 57,
          "name": "A3",
          "ticks": 36844,
          "time": 59.96744791666667,
          "velocity": 0.49606299212598426
        },
        {
          "duration": 0.15625,
          "durationTicks": 96,
          "midi": 54,
          "name": "F#3",
          "ticks": 36940,
          "time": 60.12369791666667,
          "velocity": 0.4251968503937008
        },
        {
          "duration": 0.1627604166666572,
          "durationTicks": 100,
          "midi": 51,
          "name": "D#3",
          "ticks": 37024,
          "time": 60.26041666666667,
          "velocity": 0.44881889763779526
        },
        {
          "duration": 0.1627604166666572,
          "durationTicks": 100,
          "midi": 54,
          "name": "F#3",
          "ticks": 37120,
          "time": 60.41666666666667,
          "velocity": 0.4409448818897638
        },
        {
          "duration": 0.1497395833333286,
          "durationTicks": 92,
          "midi": 48,
          "name": "C3",
          "ticks": 37216,
          "time": 60.57291666666667,
          "velocity": 0.47244094488188976
        },
        {
          "duration": 0.1627604166666572,
          "durationTicks": 100,
          "midi": 54,
          "name": "F#3",
          "ticks": 37300,
          "time": 60.70963541666667,
          "velocity": 0.4566929133858268
        },
        {
          "duration": 0.8919270833333428,
          "durationTicks": 548,
          "midi": 43,
          "name": "G2",
          "ticks": 37400,
          "time": 60.87239583333333,
          "velocity": 0.49606299212598426
        },
        {
          "duration": 0.15625,
          "durationTicks": 96,
          "midi": 55,
          "name": "G3",
          "ticks": 37484,
          "time": 61.00911458333333,
          "velocity": 0.4330708661417323
        },
        {
          "duration": 0.13671875,
          "durationTicks": 84,
          "midi": 57,
          "name": "A3",
          "ticks": 37580,
          "time": 61.16536458333333,
          "velocity": 0.49606299212598426
        },
        {
          "duration": 0.1627604166666714,
          "durationTicks": 100,
          "midi": 60,
          "name": "C4",
          "ticks": 37664,
          "time": 61.30208333333333,
          "velocity": 0.4015748031496063
        },
        {
          "duration": 0.13671875,
          "durationTicks": 84,
          "midi": 59,
          "name": "B3",
          "ticks": 37768,
          "time": 61.47135416666667,
          "velocity": 0.4015748031496063
        },
        {
          "duration": 0.1432291666666714,
          "durationTicks": 88,
          "midi": 55,
          "name": "G3",
          "ticks": 37860,
          "time": 61.62109375,
          "velocity": 0.4409448818897638
        },
        {
          "duration": 0.12369791666665719,
          "durationTicks": 76,
          "midi": 59,
          "name": "B3",
          "ticks": 37948,
          "time": 61.76432291666667,
          "velocity": 0.4566929133858268
        },
        {
          "duration": 0.15625,
          "durationTicks": 96,
          "midi": 55,
          "name": "G3",
          "ticks": 38040,
          "time": 61.9140625,
          "velocity": 0.4409448818897638
        },
        {
          "duration": 0.1497395833333286,
          "durationTicks": 92,
          "midi": 50,
          "name": "D3",
          "ticks": 38128,
          "time": 62.05729166666667,
          "velocity": 0.48031496062992124
        },
        {
          "duration": 0.1692708333333286,
          "durationTicks": 104,
          "midi": 55,
          "name": "G3",
          "ticks": 38220,
          "time": 62.20703125,
          "velocity": 0.47244094488188976
        },
        {
          "duration": 0.1171875,
          "durationTicks": 72,
          "midi": 47,
          "name": "B2",
          "ticks": 38316,
          "time": 62.36328125,
          "velocity": 0.5039370078740157
        },
        {
          "duration": 0.1432291666666572,
          "durationTicks": 88,
          "midi": 55,
          "name": "G3",
          "ticks": 38404,
          "time": 62.50651041666667,
          "velocity": 0.4881889763779528
        },
        {
          "duration": 1.09375,
          "durationTicks": 672,
          "midi": 43,
          "name": "G2",
          "ticks": 38496,
          "time": 62.65625,
          "velocity": 0.5826771653543307
        },
        {
          "duration": 0.13671875,
          "durationTicks": 84,
          "midi": 57,
          "name": "A3",
          "ticks": 38588,
          "time": 62.80598958333333,
          "velocity": 0.48031496062992124
        },
        {
          "duration": 0.15625,
          "durationTicks": 96,
          "midi": 60,
          "name": "C4",
          "ticks": 38680,
          "time": 62.95572916666667,
          "velocity": 0.47244094488188976
        },
        {
          "duration": 0.1497395833333428,
          "durationTicks": 92,
          "midi": 66,
          "name": "F#4",
          "ticks": 38768,
          "time": 63.09895833333333,
          "velocity": 0.49606299212598426
        },
        {
          "duration": 0.13671875,
          "durationTicks": 84,
          "midi": 60,
          "name": "C4",
          "ticks": 38864,
          "time": 63.25520833333333,
          "velocity": 0.49606299212598426
        },
        {
          "duration": 0.12369791666665719,
          "durationTicks": 76,
          "midi": 57,
          "name": "A3",
          "ticks": 38956,
          "time": 63.40494791666667,
          "velocity": 0.4881889763779528
        },
        {
          "duration": 0.13671875,
          "durationTicks": 84,
          "midi": 60,
          "name": "C4",
          "ticks": 39044,
          "time": 63.54817708333333,
          "velocity": 0.4881889763779528
        },
        {
          "duration": 0.1497395833333428,
          "durationTicks": 92,
          "midi": 57,
          "name": "A3",
          "ticks": 39140,
          "time": 63.70442708333333,
          "velocity": 0.5196850393700787
        },
        {
          "duration": 0.1692708333333286,
          "durationTicks": 104,
          "midi": 51,
          "name": "D#3",
          "ticks": 39220,
          "time": 63.83463541666667,
          "velocity": 0.4645669291338583
        },
        {
          "duration": 0.1888020833333286,
          "durationTicks": 116,
          "midi": 57,
          "name": "A3",
          "ticks": 39316,
          "time": 63.99088541666667,
          "velocity": 0.5433070866141733
        },
        {
          "duration": 0.1171875,
          "durationTicks": 72,
          "midi": 48,
          "name": "C3",
          "ticks": 39416,
          "time": 64.15364583333333,
          "velocity": 0.5590551181102362
        },
        {
          "duration": 0.13671875,
          "durationTicks": 84,
          "midi": 57,
          "name": "A3",
          "ticks": 39504,
          "time": 64.296875,
          "velocity": 0.5433070866141733
        },
        {
          "duration": 1.0611979166666714,
          "durationTicks": 652,
          "midi": 43,
          "name": "G2",
          "ticks": 39596,
          "time": 64.44661458333333,
          "velocity": 0.5669291338582677
        },
        {
          "duration": 0.1497395833333286,
          "durationTicks": 92,
          "midi": 60,
          "name": "C4",
          "ticks": 39684,
          "time": 64.58984375,
          "velocity": 0.49606299212598426
        },
        {
          "duration": 0.1497395833333428,
          "durationTicks": 92,
          "midi": 66,
          "name": "F#4",
          "ticks": 39776,
          "time": 64.73958333333333,
          "velocity": 0.4881889763779528
        },
        {
          "duration": 0.1497395833333286,
          "durationTicks": 92,
          "midi": 69,
          "name": "A4",
          "ticks": 39864,
          "time": 64.8828125,
          "velocity": 0.5196850393700787
        },
        {
          "duration": 0.13671875,
          "durationTicks": 84,
          "midi": 66,
          "name": "F#4",
          "ticks": 39956,
          "time": 65.03255208333333,
          "velocity": 0.4645669291338583
        },
        {
          "duration": 0.1432291666666572,
          "durationTicks": 88,
          "midi": 60,
          "name": "C4",
          "ticks": 40048,
          "time": 65.18229166666667,
          "velocity": 0.49606299212598426
        },
        {
          "duration": 0.13671875,
          "durationTicks": 84,
          "midi": 66,
          "name": "F#4",
          "ticks": 40140,
          "time": 65.33203125,
          "velocity": 0.4645669291338583
        },
        {
          "duration": 0.1822916666666714,
          "durationTicks": 112,
          "midi": 60,
          "name": "C4",
          "ticks": 40232,
          "time": 65.48177083333333,
          "velocity": 0.5118110236220472
        },
        {
          "duration": 0.17578125,
          "durationTicks": 108,
          "midi": 51,
          "name": "D#3",
          "ticks": 40328,
          "time": 65.63802083333333,
          "velocity": 0.5039370078740157
        },
        {
          "duration": 0.1627604166666572,
          "durationTicks": 100,
          "midi": 60,
          "name": "C4",
          "ticks": 40420,
          "time": 65.78776041666667,
          "velocity": 0.5039370078740157
        },
        {
          "duration": 0.13671875,
          "durationTicks": 84,
          "midi": 48,
          "name": "C3",
          "ticks": 40516,
          "time": 65.94401041666667,
          "velocity": 0.5433070866141733
        },
        {
          "duration": 0.1497395833333286,
          "durationTicks": 92,
          "midi": 60,
          "name": "C4",
          "ticks": 40600,
          "time": 66.08072916666667,
          "velocity": 0.49606299212598426
        },
        {
          "duration": 1.0611979166666714,
          "durationTicks": 652,
          "midi": 43,
          "name": "G2",
          "ticks": 40692,
          "time": 66.23046875,
          "velocity": 0.5669291338582677
        },
        {
          "duration": 0.1302083333333286,
          "durationTicks": 80,
          "midi": 59,
          "name": "B3",
          "ticks": 40788,
          "time": 66.38671875,
          "velocity": 0.49606299212598426
        },
        {
          "duration": 0.1432291666666572,
          "durationTicks": 88,
          "midi": 62,
          "name": "D4",
          "ticks": 40876,
          "time": 66.52994791666667,
          "velocity": 0.5118110236220472
        },
        {
          "duration": 0.1627604166666572,
          "durationTicks": 100,
          "midi": 67,
          "name": "G4",
          "ticks": 40960,
          "time": 66.66666666666667,
          "velocity": 0.5590551181102362
        },
        {
          "duration": 0.13671875,
          "durationTicks": 84,
          "midi": 62,
          "name": "D4",
          "ticks": 41060,
          "time": 66.82942708333333,
          "velocity": 0.5433070866141733
        },
        {
          "duration": 0.13671875,
          "durationTicks": 84,
          "midi": 59,
          "name": "B3",
          "ticks": 41152,
          "time": 66.97916666666667,
          "velocity": 0.5354330708661418
        },
        {
          "duration": 0.1171875,
          "durationTicks": 72,
          "midi": 62,
          "name": "D4",
          "ticks": 41256,
          "time": 67.1484375,
          "velocity": 0.5433070866141733
        },
        {
          "duration": 0.17578125,
          "durationTicks": 108,
          "midi": 59,
          "name": "B3",
          "ticks": 41336,
          "time": 67.27864583333333,
          "velocity": 0.5039370078740157
        },
        {
          "duration": 0.1627604166666714,
          "durationTicks": 100,
          "midi": 55,
          "name": "G3",
          "ticks": 41424,
          "time": 67.421875,
          "velocity": 0.5590551181102362
        },
        {
          "duration": 0.1627604166666714,
          "durationTicks": 100,
          "midi": 59,
          "name": "B3",
          "ticks": 41516,
          "time": 67.57161458333333,
          "velocity": 0.5826771653543307
        },
        {
          "duration": 0.1236979166666714,
          "durationTicks": 76,
          "midi": 50,
          "name": "D3",
          "ticks": 41616,
          "time": 67.734375,
          "velocity": 0.5826771653543307
        },
        {
          "duration": 0.1627604166666714,
          "durationTicks": 100,
          "midi": 59,
          "name": "B3",
          "ticks": 41696,
          "time": 67.86458333333333,
          "velocity": 0.5669291338582677
        },
        {
          "duration": 0.8984375,
          "durationTicks": 552,
          "midi": 43,
          "name": "G2",
          "ticks": 41792,
          "time": 68.02083333333333,
          "velocity": 0.5669291338582677
        },
        {
          "duration": 0.1432291666666714,
          "durationTicks": 88,
          "midi": 59,
          "name": "B3",
          "ticks": 41880,
          "time": 68.1640625,
          "velocity": 0.5669291338582677
        },
        {
          "duration": 0.1432291666666714,
          "durationTicks": 88,
          "midi": 62,
          "name": "D4",
          "ticks": 41976,
          "time": 68.3203125,
          "velocity": 0.5354330708661418
        },
        {
          "duration": 0.13671875,
          "durationTicks": 84,
          "midi": 65,
          "name": "F4",
          "ticks": 42072,
          "time": 68.4765625,
          "velocity": 0.49606299212598426
        },
        {
          "duration": 0.13671875,
          "durationTicks": 84,
          "midi": 62,
          "name": "D4",
          "ticks": 42156,
          "time": 68.61328125,
          "velocity": 0.5196850393700787
        },
        {
          "duration": 0.1497395833333428,
          "durationTicks": 92,
          "midi": 59,
          "name": "B3",
          "ticks": 42248,
          "time": 68.76302083333333,
          "velocity": 0.49606299212598426
        },
        {
          "duration": 0.1302083333333286,
          "durationTicks": 80,
          "midi": 62,
          "name": "D4",
          "ticks": 42336,
          "time": 68.90625,
          "velocity": 0.5196850393700787
        },
        {
          "duration": 0.1692708333333428,
          "durationTicks": 104,
          "midi": 59,
          "name": "B3",
          "ticks": 42428,
          "time": 69.05598958333333,
          "velocity": 0.5118110236220472
        },
        {
          "duration": 0.1692708333333286,
          "durationTicks": 104,
          "midi": 56,
          "name": "G#3",
          "ticks": 42520,
          "time": 69.20572916666667,
          "velocity": 0.47244094488188976
        },
        {
          "duration": 0.1627604166666572,
          "durationTicks": 100,
          "midi": 59,
          "name": "B3",
          "ticks": 42616,
          "time": 69.36197916666667,
          "velocity": 0.5354330708661418
        },
        {
          "duration": 0.1302083333333286,
          "durationTicks": 80,
          "midi": 53,
          "name": "F3",
          "ticks": 42712,
          "time": 69.51822916666667,
          "velocity": 0.5433070866141733
        },
        {
          "duration": 0.1236979166666714,
          "durationTicks": 76,
          "midi": 59,
          "name": "B3",
          "ticks": 42800,
          "time": 69.66145833333333,
          "velocity": 0.5196850393700787
        },
        {
          "duration": 0.8919270833333286,
          "durationTicks": 548,
          "midi": 43,
          "name": "G2",
          "ticks": 42892,
          "time": 69.81119791666667,
          "velocity": 0.5118110236220472
        },
        {
          "duration": 0.17578125,
          "durationTicks": 108,
          "midi": 55,
          "name": "G3",
          "ticks": 42976,
          "time": 69.94791666666667,
          "velocity": 0.47244094488188976
        },
        {
          "duration": 0.1497395833333286,
          "durationTicks": 92,
          "midi": 60,
          "name": "C4",
          "ticks": 43068,
          "time": 70.09765625,
          "velocity": 0.4645669291338583
        },
        {
          "duration": 0.1432291666666714,
          "durationTicks": 88,
          "midi": 63,
          "name": "D#4",
          "ticks": 43160,
          "time": 70.24739583333333,
          "velocity": 0.4409448818897638
        },
        {
          "duration": 0.1497395833333286,
          "durationTicks": 92,
          "midi": 60,
          "name": "C4",
          "ticks": 43252,
          "time": 70.39713541666667,
          "velocity": 0.48031496062992124
        },
        {
          "duration": 0.1627604166666572,
          "durationTicks": 100,
          "midi": 55,
          "name": "G3",
          "ticks": 43348,
          "time": 70.55338541666667,
          "velocity": 0.47244094488188976
        },
        {
          "duration": 0.1432291666666714,
          "durationTicks": 88,
          "midi": 60,
          "name": "C4",
          "ticks": 43436,
          "time": 70.69661458333333,
          "velocity": 0.4881889763779528
        },
        {
          "duration": 0.1627604166666572,
          "durationTicks": 100,
          "midi": 55,
          "name": "G3",
          "ticks": 43528,
          "time": 70.84635416666667,
          "velocity": 0.4645669291338583
        },
        {
          "duration": 0.1497395833333286,
          "durationTicks": 92,
          "midi": 51,
          "name": "D#3",
          "ticks": 43620,
          "time": 70.99609375,
          "velocity": 0.47244094488188976
        },
        {
          "duration": 0.1627604166666714,
          "durationTicks": 100,
          "midi": 55,
          "name": "G3",
          "ticks": 43712,
          "time": 71.14583333333333,
          "velocity": 0.49606299212598426
        },
        {
          "duration": 0.1236979166666714,
          "durationTicks": 76,
          "midi": 48,
          "name": "C3",
          "ticks": 43808,
          "time": 71.30208333333333,
          "velocity": 0.5433070866141733
        },
        {
          "duration": 0.1692708333333428,
          "durationTicks": 104,
          "midi": 55,
          "name": "G3",
          "ticks": 43892,
          "time": 71.43880208333333,
          "velocity": 0.4881889763779528
        },
        {
          "duration": 1.0091145833333286,
          "durationTicks": 620,
          "midi": 43,
          "name": "G2",
          "ticks": 43996,
          "time": 71.60807291666667,
          "velocity": 0.5118110236220472
        },
        {
          "duration": 0.1953125,
          "durationTicks": 120,
          "midi": 54,
          "name": "F#3",
          "ticks": 44072,
          "time": 71.73177083333333,
          "velocity": 0.4409448818897638
        },
        {
          "duration": 0.1432291666666714,
          "durationTicks": 88,
          "midi": 60,
          "name": "C4",
          "ticks": 44172,
          "time": 71.89453125,
          "velocity": 0.4881889763779528
        },
        {
          "duration": 0.1497395833333286,
          "durationTicks": 92,
          "midi": 63,
          "name": "D#4",
          "ticks": 44260,
          "time": 72.03776041666667,
          "velocity": 0.41732283464566927
        },
        {
          "duration": 0.13671875,
          "durationTicks": 84,
          "midi": 60,
          "name": "C4",
          "ticks": 44356,
          "time": 72.19401041666667,
          "velocity": 0.44881889763779526
        },
        {
          "duration": 0.1692708333333286,
          "durationTicks": 104,
          "midi": 54,
          "name": "F#3",
          "ticks": 44440,
          "time": 72.33072916666667,
          "velocity": 0.44881889763779526
        },
        {
          "duration": 0.1497395833333286,
          "durationTicks": 92,
          "midi": 60,
          "name": "C4",
          "ticks": 44536,
          "time": 72.48697916666667,
          "velocity": 0.5118110236220472
        },
        {
          "duration": 0.1497395833333428,
          "durationTicks": 92,
          "midi": 54,
          "name": "F#3",
          "ticks": 44636,
          "time": 72.64973958333333,
          "velocity": 0.4645669291338583
        },
        {
          "duration": 0.1497395833333428,
          "durationTicks": 92,
          "midi": 51,
          "name": "D#3",
          "ticks": 44720,
          "time": 72.78645833333333,
          "velocity": 0.44881889763779526
        },
        {
          "duration": 0.1692708333333286,
          "durationTicks": 104,
          "midi": 54,
          "name": "F#3",
          "ticks": 44812,
          "time": 72.93619791666667,
          "velocity": 0.47244094488188976
        },
        {
          "duration": 0.12369791666665719,
          "durationTicks": 76,
          "midi": 48,
          "name": "C3",
          "ticks": 44908,
          "time": 73.09244791666667,
          "velocity": 0.5039370078740157
        },
        {
          "duration": 0.1627604166666572,
          "durationTicks": 100,
          "midi": 54,
          "name": "F#3",
          "ticks": 44992,
          "time": 73.22916666666667,
          "velocity": 0.4645669291338583
        },
        {
          "duration": 1.0026041666666572,
          "durationTicks": 616,
          "midi": 43,
          "name": "G2",
          "ticks": 45088,
          "time": 73.38541666666667,
          "velocity": 0.5433070866141733
        },
        {
          "duration": 0.15625,
          "durationTicks": 96,
          "midi": 54,
          "name": "F#3",
          "ticks": 45172,
          "time": 73.52213541666667,
          "velocity": 0.4566929133858268
        },
        {
          "duration": 0.13671875,
          "durationTicks": 84,
          "midi": 60,
          "name": "C4",
          "ticks": 45272,
          "time": 73.68489583333333,
          "velocity": 0.5118110236220472
        },
        {
          "duration": 0.1432291666666714,
          "durationTicks": 88,
          "midi": 63,
          "name": "D#4",
          "ticks": 45360,
          "time": 73.828125,
          "velocity": 0.41732283464566927
        },
        {
          "duration": 0.13671875,
          "durationTicks": 84,
          "midi": 60,
          "name": "C4",
          "ticks": 45452,
          "time": 73.97786458333333,
          "velocity": 0.4645669291338583
        },
        {
          "duration": 0.1627604166666714,
          "durationTicks": 100,
          "midi": 54,
          "name": "F#3",
          "ticks": 45540,
          "time": 74.12109375,
          "velocity": 0.4645669291338583
        },
        {
          "duration": 0.1432291666666714,
          "durationTicks": 88,
          "midi": 60,
          "name": "C4",
          "ticks": 45632,
          "time": 74.27083333333333,
          "velocity": 0.4881889763779528
        },
        {
          "duration": 0.17578125,
          "durationTicks": 108,
          "midi": 54,
          "name": "F#3",
          "ticks": 45732,
          "time": 74.43359375,
          "velocity": 0.44881889763779526
        },
        {
          "duration": 0.15625,
          "durationTicks": 96,
          "midi": 51,
          "name": "D#3",
          "ticks": 45828,
          "time": 74.58984375,
          "velocity": 0.44881889763779526
        },
        {
          "duration": 0.1953125,
          "durationTicks": 120,
          "midi": 54,
          "name": "F#3",
          "ticks": 45928,
          "time": 74.75260416666667,
          "velocity": 0.4645669291338583
        },
        {
          "duration": 0.1822916666666572,
          "durationTicks": 112,
          "midi": 48,
          "name": "C3",
          "ticks": 46036,
          "time": 74.92838541666667,
          "velocity": 0.48031496062992124
        },
        {
          "duration": 0.2734375,
          "durationTicks": 168,
          "midi": 54,
          "name": "F#3",
          "ticks": 46152,
          "time": 75.1171875,
          "velocity": 0.4645669291338583
        },
        {
          "duration": 0.3450520833333428,
          "durationTicks": 212,
          "midi": 43,
          "name": "G2",
          "ticks": 46328,
          "time": 75.40364583333333,
          "velocity": 0.49606299212598426
        },
        {
          "duration": 0.2018229166666572,
          "durationTicks": 124,
          "midi": 55,
          "name": "G3",
          "ticks": 46456,
          "time": 75.61197916666667,
          "velocity": 0.4645669291338583
        },
        {
          "duration": 0.1692708333333286,
          "durationTicks": 104,
          "midi": 59,
          "name": "B3",
          "ticks": 46564,
          "time": 75.78776041666667,
          "velocity": 0.47244094488188976
        },
        {
          "duration": 0.17578125,
          "durationTicks": 108,
          "midi": 62,
          "name": "D4",
          "ticks": 46660,
          "time": 75.94401041666667,
          "velocity": 0.4251968503937008
        },
        {
          "duration": 0.1692708333333286,
          "durationTicks": 104,
          "midi": 59,
          "name": "B3",
          "ticks": 46756,
          "time": 76.10026041666667,
          "velocity": 0.48031496062992124
        },
        {
          "duration": 0.1953125,
          "durationTicks": 120,
          "midi": 55,
          "name": "G3",
          "ticks": 46856,
          "time": 76.26302083333333,
          "velocity": 0.4645669291338583
        },
        {
          "duration": 0.1822916666666572,
          "durationTicks": 112,
          "midi": 59,
          "name": "B3",
          "ticks": 46960,
          "time": 76.43229166666667,
          "velocity": 0.49606299212598426
        },
        {
          "duration": 0.2083333333333286,
          "durationTicks": 128,
          "midi": 62,
          "name": "D4",
          "ticks": 47064,
          "time": 76.6015625,
          "velocity": 0.4566929133858268
        },
        {
          "duration": 0.2213541666666572,
          "durationTicks": 136,
          "midi": 63,
          "name": "D#4",
          "ticks": 47188,
          "time": 76.80338541666667,
          "velocity": 0.4566929133858268
        },
        {
          "duration": 0.2669270833333286,
          "durationTicks": 164,
          "midi": 60,
          "name": "C4",
          "ticks": 47320,
          "time": 77.01822916666667,
          "velocity": 0.4015748031496063
        },
        {
          "duration": 0.3971354166666714,
          "durationTicks": 244,
          "midi": 57,
          "name": "A3",
          "ticks": 47484,
          "time": 77.28515625,
          "velocity": 0.4409448818897638
        },
        {
          "duration": 0.6315104166666714,
          "durationTicks": 388,
          "midi": 66,
          "name": "F#4",
          "ticks": 47708,
          "time": 77.64973958333333,
          "velocity": 0.3937007874015748
        },
        {
          "duration": 3.697916666666657,
          "durationTicks": 2272,
          "midi": 43,
          "name": "G2",
          "ticks": 48036,
          "time": 78.18359375,
          "velocity": 0.4645669291338583
        },
        {
          "duration": 3.515625,
          "durationTicks": 2160,
          "midi": 59,
          "name": "B3",
          "ticks": 48108,
          "time": 78.30078125,
          "velocity": 0.4409448818897638
        },
        {
          "duration": 3.417968750000014,
          "durationTicks": 2100,
          "midi": 62,
          "name": "D4",
          "ticks": 48164,
          "time": 78.39192708333333,
          "velocity": 0.3228346456692913
        },
        {
          "duration": 3.261718749999986,
          "durationTicks": 2004,
          "midi": 67,
          "name": "G4",
          "ticks": 48256,
          "time": 78.54166666666667,
          "velocity": 0.5433070866141733
        }
      ]
    },
    {
      "channel": 0,
      "controlChanges": {},
      "pitchBends": [],
      "instrument": {
        "family": "piano",
        "number": 0,
        "name": "acoustic grand piano"
      },
      "name": "[...]",
      "notes": [],
      "endOfTrackTicks": 0
    },
    {
      "channel": 0,
      "controlChanges": {},
      "pitchBends": [],
      "instrument": {
        "family": "piano",
        "number": 0,
        "name": "acoustic grand piano"
      },
      "name": "By A. G. Simonetto",
      "notes": [],
      "endOfTrackTicks": 0
    },
    {
      "channel": 0,
      "controlChanges": {},
      "pitchBends": [],
      "instrument": {
        "family": "piano",
        "number": 0,
        "name": "acoustic grand piano"
      },
      "name": "Email: kdf@kunstderfuge.com",
      "notes": [],
      "endOfTrackTicks": 0
    },
    {
      "channel": 0,
      "controlChanges": {},
      "pitchBends": [],
      "instrument": {
        "family": "piano",
        "number": 0,
        "name": "acoustic grand piano"
      },
      "name": "All rights reserved",
      "notes": [],
      "endOfTrackTicks": 0
    },
    {
      "channel": 0,
      "controlChanges": {},
      "pitchBends": [],
      "instrument": {
        "family": "piano",
        "number": 0,
        "name": "acoustic grand piano"
      },
      "name": "",
      "notes": [],
      "endOfTrackTicks": 0
    },
    {
      "channel": 0,
      "controlChanges": {},
      "pitchBends": [],
      "instrument": {
        "family": "piano",
        "number": 0,
        "name": "acoustic grand piano"
      },
      "name": "",
      "notes": [],
      "endOfTrackTicks": 0
    },
    {
      "channel": 0,
      "controlChanges": {},
      "pitchBends": [],
      "instrument": {
        "family": "piano",
        "number": 0,
        "name": "acoustic grand piano"
      },
      "name": "",
      "notes": [],
      "endOfTrackTicks": 0
    },
    {
      "channel": 0,
      "controlChanges": {},
      "pitchBends": [],
      "instrument": {
        "family": "piano",
        "number": 0,
        "name": "acoustic grand piano"
      },
      "name": "",
      "notes": [],
      "endOfTrackTicks": 0
    },
    {
      "channel": 0,
      "controlChanges": {},
      "pitchBends": [],
      "instrument": {
        "family": "piano",
        "number": 0,
        "name": "acoustic grand piano"
      },
      "name": "",
      "notes": [],
      "endOfTrackTicks": 0
    },
    {
      "channel": 0,
      "controlChanges": {},
      "pitchBends": [],
      "instrument": {
        "family": "piano",
        "number": 0,
        "name": "acoustic grand piano"
      },
      "name": "",
      "notes": [],
      "endOfTrackTicks": 0
    },
    {
      "channel": 0,
      "controlChanges": {},
      "pitchBends": [],
      "instrument": {
        "family": "piano",
        "number": 0,
        "name": "acoustic grand piano"
      },
      "name": "",
      "notes": [],
      "endOfTrackTicks": 0
    },
    {
      "channel": 0,
      "controlChanges": {},
      "pitchBends": [],
      "instrument": {
        "family": "piano",
        "number": 0,
        "name": "acoustic grand piano"
      },
      "name": "",
      "notes": [],
      "endOfTrackTicks": 1
    }
  ]
}